<?xml version="1.0" standalone="no"?>
<!DOCTYPE svg PUBLIC "-//W3C//DTD SVG 20010904//EN"
 "http://www.w3.org/TR/2001/REC-SVG-20010904/DTD/svg10.dtd">
<svg version="1.0" xmlns="http://www.w3.org/2000/svg"
 width="510.000000pt" height="510.000000pt" viewBox="0 0 510.000000 510.000000"
 preserveAspectRatio="xMidYMid meet">
<metadata>
Created by potrace 1.14, written by Peter Selinger 2001-2017
</metadata>
<g transform="translate(0.000000,510.000000) scale(0.100000,-0.100000)"
fill="#000000" stroke="none">
<path d="M2572 4992 c-7 -9 -10 -11 -7 -4 4 7 -1 12 -10 12 -9 0 -13 -5 -10
-11 4 -6 -2 -5 -13 2 -16 10 -23 10 -36 0 -11 -9 -20 -10 -35 -2 -13 8 -22 8
-26 1 -4 -6 -12 -7 -18 -3 -18 11 -47 11 -47 0 0 -5 -8 -3 -17 4 -15 12 -16
12 -10 -5 6 -15 5 -17 -6 -8 -10 9 -17 8 -27 -1 -10 -10 -12 -9 -7 6 4 9 2 17
-3 17 -9 0 -14 -14 -11 -32 0 -5 -4 -8 -10 -8 -6 0 -9 7 -5 15 4 11 0 14 -17
11 -12 -3 -25 -5 -29 -5 -5 -1 -8 -6 -8 -12 0 -8 5 -8 15 1 9 7 15 8 15 2 0
-13 -24 -22 -37 -14 -6 4 -9 15 -7 25 1 11 -1 16 -4 12 -4 -4 -7 -12 -7 -18 0
-7 -10 -16 -22 -22 -13 -5 -23 -16 -23 -23 0 -7 -4 -10 -10 -7 -5 3 -10 1 -10
-4 0 -6 5 -11 11 -11 5 0 7 -5 4 -10 -4 -6 -12 -7 -18 -3 -7 4 -6 -1 2 -10 12
-15 12 -17 -4 -11 -12 5 -16 4 -11 -4 3 -6 -2 -16 -11 -22 -15 -9 -15 -10 6
-4 18 5 22 3 15 -7 -13 -21 -14 -39 -2 -39 6 0 8 6 5 13 -3 8 1 14 8 14 8 0
14 -3 13 -6 -2 -18 4 -22 17 -11 12 10 14 8 10 -9 -2 -12 0 -19 6 -16 5 4 9 1
9 -5 0 -6 5 -8 10 -5 8 5 7 12 -2 23 -12 15 -11 16 4 3 10 -7 15 -17 12 -22
-3 -5 2 -9 11 -9 10 0 14 -5 9 -12 -6 -10 -4 -10 7 0 7 6 18 12 24 12 5 0 3
-5 -5 -10 -11 -7 -11 -10 -2 -10 7 0 10 -4 7 -10 -3 -6 1 -7 9 -4 10 4 16 1
16 -7 0 -11 3 -11 10 1 8 13 10 13 10 -2 0 -9 5 -20 12 -24 6 -4 8 -3 5 3 -3
5 0 10 8 10 10 0 11 -5 5 -17 -6 -12 -5 -17 5 -17 8 0 11 5 8 10 -3 6 -1 7 5
3 7 -4 12 -14 12 -22 0 -8 5 -12 10 -9 6 4 7 12 4 18 -4 7 5 0 20 -15 16 -17
24 -33 20 -45 -3 -10 -2 -14 3 -8 11 14 36 18 28 5 -8 -13 14 -42 26 -34 5 3
9 1 9 -4 0 -9 37 -25 53 -23 4 1 6 -2 6 -6 -4 -25 3 -43 17 -43 8 0 12 -5 8
-11 -4 -8 1 -9 17 -5 13 3 18 3 12 0 -20 -9 -15 -27 4 -20 10 4 14 4 10 0 -4
-4 -1 -14 6 -23 11 -14 10 -15 -8 -1 -19 14 -19 14 -6 -3 8 -10 20 -16 28 -13
8 3 11 1 8 -4 -3 -6 1 -13 10 -16 13 -5 13 -9 3 -23 -7 -9 -8 -13 -4 -9 5 4
15 0 23 -10 12 -16 13 -16 7 3 -3 11 4 3 16 -18 13 -24 25 -35 33 -31 7 4 9 4
5 -1 -4 -4 -3 -15 3 -24 7 -9 -2 -1 -20 17 -42 44 -40 29 3 -19 21 -22 37 -33
40 -26 2 7 5 -6 6 -28 1 -22 4 -34 7 -27 2 6 9 12 14 12 6 0 7 -4 4 -10 -3 -5
-1 -10 4 -10 6 0 11 -8 12 -17 0 -15 2 -15 9 2 l9 20 0 -20 c1 -17 3 -17 11
-5 9 13 10 13 10 0 0 -13 1 -13 10 0 7 11 10 11 10 2 0 -7 5 -10 11 -6 6 3 15
0 20 -7 7 -12 9 -12 9 0 0 8 7 4 18 -9 l19 -23 17 24 17 24 -5 -26 c-3 -20 0
-25 15 -24 10 1 22 5 26 10 5 4 3 5 -4 1 -6 -3 -14 -2 -17 3 -4 5 2 8 11 7 9
-2 19 -8 21 -15 3 -9 7 -9 18 0 12 10 13 8 7 -7 -6 -17 -5 -17 10 -5 16 12 17
12 11 -5 -7 -18 -7 -18 13 -1 16 14 20 14 20 2 0 -8 -4 -12 -9 -9 -4 3 -8 0
-8 -5 0 -14 6 -14 30 -1 13 7 21 7 25 0 4 -6 11 -8 16 -5 5 4 9 1 9 -4 0 -14
-12 -14 -28 -1 -7 5 -6 2 2 -7 13 -14 18 -14 31 -3 14 11 16 11 13 -1 -2 -8 3
-13 10 -12 6 2 12 -1 12 -6 0 -5 7 -12 16 -15 14 -5 15 -4 4 9 -11 13 -10 14
4 9 15 -6 21 -24 16 -49 -1 -5 4 -4 11 3 20 19 53 16 45 -4 -5 -14 -4 -15 8
-5 11 9 16 9 22 0 5 -8 3 -9 -6 -4 -10 6 -12 4 -7 -8 8 -20 3 -21 -26 -5 -21
11 -21 10 -7 -7 8 -10 10 -16 3 -12 -6 4 -19 0 -27 -9 -9 -8 -16 -11 -16 -6 0
5 -7 9 -15 9 -11 0 -12 -4 -3 -14 8 -11 7 -12 -6 -7 -9 3 -16 10 -16 16 0 5
-7 2 -16 -6 -8 -9 -20 -13 -25 -10 -13 7 -51 -25 -43 -37 3 -5 -3 -6 -12 -2
-13 5 -15 3 -9 -8 8 -12 6 -12 -8 0 -15 12 -17 12 -12 -2 4 -8 1 -18 -6 -23
-7 -4 -10 -3 -6 3 3 5 0 10 -7 10 -9 0 -12 -7 -8 -16 5 -14 4 -14 -13 -1 -17
14 -18 14 -5 -10 12 -22 12 -24 -2 -12 -21 17 -44 -8 -25 -27 10 -11 8 -11 -9
-3 -19 10 -21 9 -19 -12 2 -14 -2 -23 -11 -23 -11 0 -11 3 -1 16 11 14 10 14
-6 2 -10 -8 -15 -21 -12 -29 4 -10 0 -13 -15 -9 -11 3 -18 1 -15 -3 3 -5 -1
-11 -7 -14 -7 -3 -2 -3 12 0 l25 6 -27 -24 c-22 -20 -25 -27 -15 -38 10 -10 8
-10 -12 0 -13 6 -21 7 -17 2 3 -6 0 -13 -6 -15 -9 -4 -9 -6 1 -6 11 -1 10 -4
-3 -14 -16 -12 -17 -17 -6 -36 8 -15 8 -21 1 -17 -6 4 -19 2 -28 -4 -15 -10
-15 -11 -1 -6 17 5 19 -17 3 -31 -4 -5 -5 -1 0 7 5 8 4 12 0 7 -14 -12 -15
-40 -3 -54 8 -10 5 -13 -13 -13 -22 0 -22 0 -3 -14 10 -8 15 -18 11 -22 -4 -5
-12 -3 -16 4 -5 9 -8 2 -9 -17 0 -18 4 -31 11 -31 8 0 9 -3 1 -8 -14 -10 -15
-84 0 -75 6 3 6 0 -1 -8 -16 -16 -17 -29 -2 -29 5 0 7 5 3 12 -4 6 -3 8 4 5
14 -9 3 -49 -12 -40 -6 3 -5 0 2 -8 11 -12 14 -12 22 1 5 8 10 10 10 4 0 -5
-5 -15 -12 -22 -9 -9 -9 -12 1 -12 7 0 9 -5 4 -12 -12 -20 -12 -39 0 -31 6 4
8 0 4 -10 -4 -11 -2 -14 7 -11 16 6 30 -23 16 -31 -13 -8 -13 -25 1 -25 5 0 7
5 4 10 -3 6 -1 10 4 10 14 0 14 -13 0 -27 -8 -8 -6 -15 10 -25 11 -7 21 -19
21 -26 0 -8 6 -12 15 -8 8 3 14 1 12 -4 -1 -5 7 -16 18 -25 19 -16 18 -16 -7
-1 -19 11 -29 13 -34 4 -4 -7 -3 -8 4 -4 7 4 12 3 12 -2 0 -5 12 -14 26 -21
18 -8 24 -16 19 -28 -3 -10 -3 -14 1 -10 4 4 13 -1 21 -11 8 -9 12 -11 8 -5
-4 8 -1 11 9 7 9 -3 15 -9 14 -12 0 -4 0 -14 1 -22 1 -13 2 -13 11 0 9 13 10
13 11 0 1 -8 1 -18 1 -21 -1 -4 9 -5 21 -2 18 4 19 3 7 -6 -12 -9 -9 -11 15
-12 17 -1 33 -1 37 0 4 0 5 -8 3 -18 -3 -14 2 -17 21 -13 16 3 26 -1 30 -12 5
-14 9 -14 22 -4 12 10 14 10 8 1 -4 -8 -2 -13 4 -13 6 0 9 -4 5 -9 -5 -9 10
-9 42 1 6 1 18 -6 26 -16 11 -15 16 -16 22 -6 5 8 4 11 -2 7 -5 -3 -10 0 -10
7 0 8 7 13 16 11 9 -1 15 -9 14 -17 -2 -8 6 -14 19 -15 18 -2 20 0 8 7 -13 8
-13 10 1 10 24 0 30 -11 16 -29 -11 -14 -10 -14 6 -2 10 8 15 21 12 30 -4 12
-2 12 9 -2 14 -18 61 -34 51 -16 -4 5 -10 7 -15 4 -5 -3 -11 -1 -15 4 -6 10
15 8 50 -4 19 -7 19 -7 1 7 -16 13 -13 14 37 11 49 -2 55 0 51 15 -5 15 -4 15
6 -1 8 -13 15 -15 24 -8 7 6 22 12 34 14 12 2 25 7 29 12 5 4 3 5 -4 1 -6 -3
-14 -3 -17 2 -3 5 0 9 7 9 7 0 21 4 32 8 15 5 16 4 6 -3 -11 -8 -8 -10 12 -9
24 2 25 3 9 20 -15 17 -15 17 1 11 10 -3 17 -1 17 5 0 6 4 11 10 11 5 0 7 -8
3 -17 -4 -12 0 -11 11 5 10 12 24 22 32 22 11 0 14 6 9 23 -7 22 -7 22 9 2 9
-11 16 -15 15 -10 -3 23 2 35 14 35 19 0 47 33 47 56 0 16 2 17 11 4 8 -12 10
-9 6 11 -3 19 0 26 12 25 9 0 15 5 13 12 -3 15 10 16 24 2 7 -7 11 -6 11 4 0
8 -4 13 -8 11 -4 -3 -10 3 -13 12 -4 10 -4 14 0 10 10 -10 35 13 27 26 -4 7 1
8 13 4 17 -6 17 -6 3 6 -14 10 -14 14 -3 25 8 7 14 20 14 30 0 15 -2 15 -11 2
-9 -13 -10 -13 -6 0 2 8 9 16 15 16 7 1 17 2 23 3 5 0 8 5 4 11 -3 5 -13 7
-23 4 -12 -4 -11 -1 5 13 22 18 25 35 9 63 -7 12 -6 13 5 3 19 -18 30 -16 22
4 -6 15 -5 16 9 3 11 -11 12 -17 4 -22 -8 -6 -7 -8 2 -8 7 0 10 -4 7 -10 -3
-5 0 -10 7 -10 9 0 9 -3 -2 -10 -13 -8 -12 -10 4 -10 14 0 17 -5 13 -21 -4
-16 -3 -18 9 -8 20 16 17 4 -3 -17 -17 -17 -17 -17 5 -12 12 3 20 2 17 -2 -3
-5 -2 -10 2 -13 5 -2 3 -3 -3 -1 -6 1 -11 -4 -11 -12 0 -8 6 -13 12 -10 6 2
17 -6 25 -17 12 -20 12 -21 -3 -9 -13 11 -15 10 -10 -7 3 -12 10 -18 17 -14 6
3 6 0 -1 -8 -7 -7 -13 -18 -13 -23 0 -6 5 -4 10 4 8 12 10 10 10 -10 0 -45 3
-59 13 -53 6 4 8 0 4 -10 -3 -9 -3 -16 1 -16 21 3 24 -3 6 -16 -19 -15 -19
-15 1 -8 18 6 19 5 5 -12 -9 -11 -10 -16 -2 -11 6 4 12 3 12 -1 0 -5 -6 -15
-12 -22 -11 -10 -10 -12 1 -9 8 2 17 -5 19 -16 3 -13 0 -16 -9 -11 -8 6 -10 4
-5 -4 5 -7 13 -10 20 -8 6 3 12 -3 12 -13 0 -10 -4 -16 -8 -14 -4 3 -8 0 -8
-5 0 -6 8 -11 18 -12 10 0 12 -3 5 -6 -19 -7 -16 -40 5 -53 16 -11 16 -11 0
-6 -10 3 -18 1 -18 -4 0 -6 5 -10 10 -10 16 0 12 -21 -7 -43 -10 -11 -12 -17
-5 -13 7 4 15 1 18 -8 3 -9 9 -14 13 -12 4 3 7 -4 7 -14 0 -15 -3 -16 -13 -8
-11 9 -12 6 -3 -18 6 -16 11 -31 10 -34 -1 -2 7 -7 18 -11 14 -5 22 -3 26 7 3
8 10 14 16 14 6 0 8 -5 4 -12 -4 -7 -3 -8 5 -4 6 4 9 12 6 17 -4 5 -1 9 5 9 6
0 8 5 5 10 -3 6 -1 10 5 10 6 0 8 5 4 12 -5 7 -3 8 6 3 8 -5 18 -1 27 11 8 10
17 18 21 17 4 -1 7 6 6 16 -1 14 4 17 20 13 19 -5 19 -4 7 11 -12 15 -12 17 1
12 17 -7 43 19 33 34 -3 6 9 17 27 26 18 8 25 13 16 11 -12 -4 -15 -1 -11 10
3 8 11 13 19 10 8 -3 11 2 9 14 -2 10 6 27 18 37 21 18 21 18 7 -2 -14 -19
-14 -19 3 -6 13 11 15 17 6 28 -7 7 -9 16 -5 20 3 3 6 2 6 -4 0 -6 7 -14 16
-17 14 -5 15 -4 4 9 -9 11 -9 15 -1 15 7 0 9 5 6 10 -5 9 7 14 26 12 4 -1 5 7
2 18 -3 11 -10 17 -16 13 -6 -3 -7 -1 -3 6 4 6 11 9 15 7 12 -8 35 40 28 58
-4 10 -1 13 7 10 7 -3 16 2 20 11 3 9 2 14 -2 11 -5 -3 -7 17 -6 45 1 30 -3
49 -10 50 -6 0 -2 4 9 9 19 8 19 9 1 9 -13 1 -17 6 -13 22 5 17 3 18 -11 7
-13 -11 -15 -11 -10 3 4 9 1 22 -5 28 -9 9 -7 11 8 6 18 -5 18 -4 -2 11 -18
12 -20 20 -13 34 7 13 6 21 -2 26 -7 5 -8 3 -3 -7 7 -12 6 -12 -7 -1 -10 8
-14 20 -11 29 4 10 2 14 -4 10 -5 -3 -10 0 -10 7 0 9 7 12 15 8 9 -3 5 5 -9
19 -13 13 -27 24 -31 24 -3 0 -10 4 -15 9 -4 5 -3 7 2 3 6 -3 17 -2 25 4 11 6
12 9 2 9 -7 0 -10 4 -7 10 3 5 0 7 -9 4 -11 -4 -13 0 -9 15 3 12 1 21 -6 21
-6 0 -11 5 -11 11 0 16 -26 39 -35 31 -5 -4 -5 -1 -1 6 6 11 11 11 23 0 15
-12 15 -11 2 10 -8 12 -19 20 -26 18 -7 -3 -15 0 -19 6 -4 7 -3 8 4 4 8 -5 12
0 12 13 0 12 -5 21 -11 21 -5 0 -7 -5 -3 -12 4 -7 3 -8 -4 -4 -6 4 -8 14 -5
23 4 9 2 14 -3 10 -5 -3 -10 3 -10 13 0 10 5 16 10 13 5 -4 7 1 3 10 -3 9 -1
19 5 23 6 4 8 3 4 -4 -3 -6 -3 -13 2 -16 5 -3 8 9 8 27 -1 18 4 31 10 30 6 -1
11 5 11 13 0 10 -4 11 -11 4 -5 -5 -14 -10 -20 -10 -5 0 1 8 12 19 24 20 29
36 10 26 -7 -4 -4 1 6 9 11 9 16 16 11 16 -5 0 -4 5 3 12 16 16 15 31 0 23 -7
-4 -5 0 5 8 18 15 18 16 0 27 -11 7 -12 10 -3 7 8 -2 23 5 33 15 9 10 13 18 8
18 -5 0 -11 7 -14 14 -4 10 -1 13 9 9 7 -3 14 0 14 6 0 6 -6 11 -12 11 -8 0
-9 3 -3 8 14 10 17 32 5 32 -5 0 -7 8 -3 18 5 15 4 16 -8 1 -13 -15 -15 -15
-31 2 -20 21 -10 26 11 7 11 -11 11 -9 2 9 -6 12 -16 25 -21 28 -6 4 -7 11 -4
17 4 7 2 8 -5 4 -9 -6 -9 -12 1 -24 11 -15 11 -15 -3 -5 -9 7 -19 9 -24 5 -4
-4 -2 4 5 18 7 14 9 21 4 17 -5 -5 -14 7 -21 25 -8 20 -11 23 -9 9 3 -14 1
-20 -4 -15 -5 5 -11 19 -13 31 -2 13 -7 26 -12 30 -4 5 -5 2 -1 -4 4 -8 1 -13
-7 -13 -10 0 -14 8 -11 23 2 12 2 16 -2 10 -3 -7 -10 -13 -15 -13 -6 0 -7 5
-4 10 3 6 1 10 -4 10 -6 0 -11 5 -11 11 0 5 6 7 13 3 6 -3 0 6 -16 20 -15 15
-24 32 -21 38 4 7 2 8 -5 4 -6 -4 -9 -11 -6 -16 3 -5 0 -12 -6 -16 -8 -4 -9
-3 -5 4 4 7 2 12 -4 12 -6 0 -8 5 -4 12 5 8 2 9 -11 4 -16 -6 -16 -4 -4 11 9
11 10 14 2 9 -8 -4 -13 -2 -13 4 0 7 -7 9 -16 6 -12 -5 -14 -1 -8 16 6 19 5
21 -8 11 -19 -16 -32 -5 -16 14 9 11 8 13 -3 11 -8 -2 -13 3 -11 11 3 12 1 12
-14 0 -12 -9 -15 -9 -10 -1 4 7 2 12 -4 12 -6 0 -8 5 -5 10 4 6 3 10 -2 9 -18
-4 -45 15 -59 43 -8 16 -19 26 -24 23 -6 -4 -10 -1 -10 4 0 6 -5 11 -11 11 -5
0 -7 -4 -4 -10 3 -5 1 -10 -4 -10 -14 0 -14 23 0 37 7 7 2 10 -20 7 -24 -3
-31 0 -32 14 0 14 -2 14 -9 -3 -5 -11 -9 -14 -9 -7 -1 9 -6 10 -20 2 -26 -13
-34 -13 -25 3 4 6 -2 3 -13 -8 -11 -11 -19 -23 -16 -27 4 -8 -32 -2 -47 7 -6
4 -10 3 -9 -2 4 -20 -2 -24 -18 -12 -11 10 -14 10 -9 2 7 -12 -19 -19 -48 -14
-5 1 -3 -6 4 -16 8 -10 11 -15 6 -11 -5 4 -18 2 -30 -4 -20 -10 -20 -10 -6 7
11 13 1 10 -34 -10 -27 -16 -47 -24 -43 -18 9 14 -18 24 -40 16 -11 -4 -14 -3
-9 5 4 7 1 12 -8 12 -9 0 -16 4 -16 9 0 5 -7 12 -16 15 -8 3 -12 2 -9 -4 3 -6
-1 -7 -9 -4 -9 3 -16 10 -16 15 0 4 -10 13 -21 20 -15 8 -19 8 -15 0 4 -6 2
-11 -3 -11 -10 0 -15 14 -12 32 0 4 -11 3 -26 -3 -24 -9 -25 -8 -12 7 13 16
12 16 -8 6 -27 -15 -33 -15 -33 -1 0 5 4 8 9 4 5 -3 12 -2 15 3 8 13 -38 12
-47 -1 -6 -8 -7 -6 -3 6 3 11 0 20 -9 23 -8 4 -12 11 -8 18 4 6 -1 4 -11 -4
-21 -16 -49 -23 -40 -9 3 5 10 6 16 3 7 -4 8 -2 4 4 -4 6 -13 9 -21 5 -11 -4
-14 0 -9 13 4 12 3 15 -3 7 -10 -13 -53 -14 -53 0 0 4 -4 5 -10 2 -5 -3 -10 2
-10 12 0 15 -2 16 -10 3 -5 -8 -10 -10 -10 -5 0 9 -25 15 -77 18 -7 0 -10 4
-8 8 3 4 -2 10 -11 13 -8 3 -12 11 -8 17 4 7 3 9 -3 6 -6 -4 -19 1 -29 9 -10
9 -12 13 -4 9 8 -4 6 1 -4 9 -15 12 -16 16 -5 17 8 0 4 4 -8 9 -25 10 -31 35
-10 44 6 3 3 4 -7 3 -13 -1 -20 5 -21 21 -1 13 -8 28 -16 33 -12 7 -12 9 1 10
10 0 8 3 -5 9 -14 6 -15 9 -5 10 9 1 6 5 -7 10 -15 6 -21 15 -17 25 4 9 1 15
-7 15 -11 0 -11 3 1 10 13 8 12 10 -4 10 -15 0 -16 3 -6 15 12 15 10 17 -20
19 -8 1 -14 6 -13 12 1 5 -11 10 -27 9 -22 0 -26 -3 -18 -13 8 -9 7 -11 -5 -6
-8 3 -18 12 -21 20 -4 9 -11 12 -18 8 -16 -10 -48 -11 -69 -2 -8 4 -21 3 -29
-2 -10 -6 -21 -3 -35 8 -15 13 -17 14 -8 1 11 -13 9 -15 -7 -14 -11 1 -23 4
-26 8 -4 3 -16 2 -27 -4 -14 -8 -18 -8 -13 0 4 6 2 11 -3 11 -6 0 -11 -6 -12
-12 0 -7 -4 -5 -7 4 -7 17 -8 17 -20 0z m265 -24 c-3 -8 -6 -5 -6 6 -1 11 2
17 5 13 3 -3 4 -12 1 -19z m-32 3 c3 -5 2 -12 -3 -15 -5 -3 -9 1 -9 9 0 17 3
19 12 6z m100 -1 c3 -5 1 -10 -4 -10 -6 0 -11 5 -11 10 0 6 2 10 4 10 3 0 8
-4 11 -10z m45 -14 c0 -2 -7 -7 -16 -10 -8 -3 -12 -2 -9 4 6 10 25 14 25 6z
m149 -300 c9 -11 9 -16 0 -22 -7 -4 -9 -3 -5 4 3 6 -2 15 -11 21 -10 6 -13 11
-7 11 6 0 17 -6 23 -14z m-609 -52 c0 -8 -19 -13 -24 -6 -3 5 1 9 9 9 8 0 15
-2 15 -3z m875 -44 c3 -5 1 -10 -4 -10 -6 0 -11 5 -11 10 0 6 2 10 4 10 3 0 8
-4 11 -10z m718 -104 c4 -10 1 -13 -8 -9 -8 3 -12 9 -9 14 7 12 11 11 17 -5z
m247 -222 c0 -2 -7 -4 -15 -4 -8 0 -15 4 -15 10 0 5 7 7 15 4 8 -4 15 -8 15
-10z m-1386 -60 c3 -8 2 -12 -4 -9 -6 3 -10 10 -10 16 0 14 7 11 14 -7z m323
-116 c-3 -8 -6 -5 -6 6 -1 11 2 17 5 13 3 -3 4 -12 1 -19z m-92 -108 c3 -6 -1
-7 -9 -4 -10 4 -16 1 -16 -7 0 -7 -3 -10 -6 -6 -7 7 4 27 16 27 5 0 12 -4 15
-10z m-275 -284 c0 -2 -7 -6 -15 -10 -8 -3 -15 -1 -15 4 0 6 7 10 15 10 8 0
15 -2 15 -4z m-55 -246 c3 -6 -1 -7 -9 -4 -18 7 -21 14 -7 14 6 0 13 -4 16
-10z m1099 -266 c3 -8 2 -12 -4 -9 -6 3 -10 10 -10 16 0 14 7 11 14 -7z m206
-74 c0 -5 -5 -10 -11 -10 -5 0 -7 5 -4 10 3 6 8 10 11 10 2 0 4 -4 4 -10z
m-295 -59 c3 -5 0 -13 -6 -17 -7 -4 -9 -3 -5 4 3 5 0 13 -6 15 -9 4 -10 6 -1
6 6 1 14 -3 18 -8z m335 -81 c0 -5 -2 -10 -4 -10 -3 0 -8 5 -11 10 -3 6 -1 10
4 10 6 0 11 -4 11 -10z m34 -221 c-3 -5 -10 -7 -15 -3 -5 3 -7 10 -3 15 3 5
10 7 15 3 5 -3 7 -10 3 -15z m26 -84 c0 -2 -6 -5 -13 -8 -8 -3 -14 1 -14 8 0
7 6 11 14 8 7 -3 13 -6 13 -8z"/>
<path d="M2393 4651 c0 -11 5 -18 9 -15 4 3 5 11 1 19 -7 21 -12 19 -10 -4z"/>
<path d="M1959 4644 c-1 -5 -1 -13 0 -17 1 -4 -7 -3 -18 2 -15 8 -20 7 -25 -5
-5 -14 -9 -14 -23 -3 -15 12 -16 12 -10 -4 4 -11 3 -16 -3 -12 -6 3 -10 2 -10
-3 0 -5 -7 -9 -15 -9 -8 0 -12 4 -9 9 10 15 -6 8 -26 -12 -19 -19 -22 -19 -36
-5 -21 20 -27 19 -15 -4 9 -16 8 -18 -11 -13 -15 4 -19 2 -13 -7 6 -10 3 -11
-11 -3 -24 12 -44 5 -45 -16 0 -11 -2 -12 -6 -4 -2 6 -9 10 -13 7 -5 -3 -7
-11 -4 -19 3 -7 -2 -13 -10 -13 -8 0 -13 3 -11 7 2 3 -5 6 -15 6 -14 0 -16 -3
-8 -13 8 -11 7 -12 -6 -7 -12 5 -19 0 -23 -15 -5 -20 -6 -21 -20 -4 -8 10 -12
12 -8 6 4 -8 0 -14 -9 -14 -9 -1 -21 -2 -28 -3 -7 0 -18 -12 -24 -24 -8 -16
-13 -19 -17 -10 -4 11 -7 11 -18 -1 -9 -8 -9 -11 -2 -7 9 5 11 2 6 -10 -4 -11
-8 -13 -11 -6 -2 7 -8 12 -13 12 -6 0 -7 -4 -4 -10 3 -5 1 -10 -4 -10 -10 0
-15 12 -13 31 0 3 -10 5 -23 5 -14 0 -21 -4 -17 -10 3 -6 -1 -5 -10 1 -8 7
-18 9 -22 5 -4 -4 -14 2 -22 12 -8 11 -14 14 -14 7 0 -9 -5 -8 -16 3 -8 9 -20
14 -25 11 -5 -4 -9 -1 -9 6 0 9 -3 9 -14 0 -11 -9 -16 -9 -22 0 -4 8 -3 9 4 5
18 -11 14 0 -5 15 -11 10 -14 10 -9 2 5 -9 0 -13 -13 -13 -12 0 -21 4 -21 10
0 5 -10 14 -22 21 -18 10 -20 9 -14 -7 6 -16 3 -15 -17 4 l-24 22 -19 -22
c-15 -18 -16 -20 -1 -9 27 21 20 7 -9 -18 l-26 -22 7 23 c6 20 4 19 -14 -6
-11 -17 -17 -34 -14 -39 3 -5 -5 -4 -17 3 -13 7 -20 8 -16 2 3 -6 2 -13 -4
-17 -6 -4 -7 -11 -4 -17 4 -5 -4 -4 -17 3 -23 12 -23 11 -9 -6 14 -17 14 -18
-10 -5 -24 13 -24 12 -10 -5 9 -11 10 -16 3 -11 -7 4 -13 2 -13 -3 0 -6 -3
-10 -7 -10 -19 3 -28 -2 -17 -9 6 -4 3 -13 -9 -25 -19 -19 -19 -18 -13 5 l6
23 -11 -22 c-7 -13 -19 -23 -27 -23 -14 0 -14 -2 -1 -12 8 -7 12 -12 10 -11
-2 2 -11 -3 -19 -10 -13 -9 -14 -9 -8 1 4 7 2 12 -5 12 -7 0 -9 -8 -6 -21 4
-16 3 -18 -9 -8 -11 9 -14 9 -14 0 0 -7 -5 -9 -12 -5 -7 4 -8 3 -4 -5 4 -6 11
-9 16 -6 5 3 11 1 14 -4 4 -5 -5 -8 -19 -6 -19 2 -23 -1 -15 -10 8 -10 8 -15
-1 -21 -8 -4 -9 -3 -5 4 4 7 2 12 -3 12 -6 0 -12 -4 -12 -10 -1 -5 -2 -16 -3
-22 -1 -7 -9 -12 -19 -10 -9 2 -17 -1 -16 -5 4 -23 -3 -31 -22 -28 -14 3 -19
0 -16 -9 3 -7 1 -19 -4 -27 -8 -12 -11 -12 -20 1 -8 12 -9 10 -4 -9 6 -20 4
-23 -9 -18 -10 4 -15 3 -12 -2 3 -5 -1 -12 -10 -15 -8 -3 -13 -10 -9 -15 3 -5
-5 -17 -17 -25 -20 -14 -18 -21 5 -17 5 1 5 -3 2 -9 -4 -6 -14 -9 -22 -6 -9 4
-11 2 -7 -6 5 -8 1 -9 -12 -5 -18 7 -18 7 0 -8 14 -11 16 -15 5 -15 -12 0 -12
-2 0 -9 11 -7 11 -9 0 -14 -9 -4 -7 -6 6 -7 l20 -1 -20 -9 c-11 -5 -14 -9 -7
-9 7 -1 11 -5 7 -10 -3 -6 3 -18 13 -28 10 -10 22 -27 26 -37 5 -16 4 -17 -9
-6 -13 11 -14 10 -9 -4 3 -9 10 -16 15 -16 5 0 9 -12 9 -26 0 -17 4 -23 13
-18 7 5 6 0 -3 -11 -8 -10 -10 -16 -4 -12 6 3 16 -5 23 -20 11 -24 10 -25 -4
-13 -13 11 -15 10 -9 -4 3 -9 11 -16 16 -16 6 0 8 -9 5 -21 -4 -16 -3 -18 9
-8 9 7 14 8 14 1 0 -6 -4 -14 -10 -17 -5 -3 -10 -15 -10 -26 0 -11 -4 -18 -9
-15 -13 9 -21 -20 -9 -32 8 -8 4 -14 -15 -21 -15 -6 -27 -13 -27 -17 0 -3 7
-4 14 -1 10 4 13 1 9 -8 -3 -8 -9 -12 -14 -9 -5 3 -9 -7 -9 -22 0 -27 -1 -27
-15 -8 -13 18 -14 18 -9 -8 2 -15 0 -29 -5 -33 -6 -3 -8 -15 -6 -26 4 -18 2
-19 -13 -8 -9 7 -14 9 -9 4 4 -4 0 -16 -8 -25 -13 -14 -13 -17 0 -17 8 0 12 4
9 9 -3 4 0 8 5 8 6 0 11 -4 11 -10 0 -12 -35 -31 -43 -23 -4 3 -2 -8 3 -26 5
-19 5 -29 -1 -26 -5 4 -12 -1 -15 -9 -3 -9 -11 -13 -17 -9 -6 3 -7 1 -3 -6 6
-9 12 -9 24 1 14 11 14 9 -1 -8 -9 -11 -17 -26 -17 -33 0 -7 -5 -9 -12 -5 -8
5 -7 0 2 -11 13 -17 13 -18 0 -13 -11 4 -16 0 -16 -13 0 -14 3 -16 15 -6 12
10 12 9 1 -10 -8 -12 -18 -19 -23 -16 -5 3 -4 -4 2 -16 8 -14 8 -21 1 -21 -5
0 -10 5 -10 12 0 6 -3 9 -6 5 -3 -3 -2 -12 2 -19 5 -7 9 -19 10 -26 2 -10 -1
-11 -12 -1 -12 10 -13 9 -7 -6 5 -15 3 -17 -11 -12 -10 4 -15 3 -11 -3 3 -6 1
-10 -4 -10 -6 0 -11 -5 -11 -11 0 -8 5 -7 15 1 22 19 25 8 3 -12 -10 -10 -18
-13 -18 -7 0 8 -4 8 -15 -1 -8 -6 -19 -9 -25 -5 -5 3 -10 -2 -11 -12 0 -10 -3
-13 -6 -5 -2 6 -9 12 -14 12 -6 0 -7 -4 -4 -10 6 -9 -8 -14 -28 -11 -4 1 -10
-6 -13 -14 -5 -13 -9 -13 -22 -3 -14 12 -14 10 -2 -12 12 -23 12 -24 -3 -11
-13 10 -17 10 -17 1 0 -10 -3 -10 -15 0 -12 10 -14 8 -10 -9 3 -15 0 -18 -12
-14 -12 5 -14 3 -8 -8 4 -8 5 -11 0 -7 -4 4 -15 2 -23 -5 -13 -10 -14 -9 -8 2
6 9 5 12 -5 9 -8 -3 -13 -11 -11 -18 2 -10 0 -11 -11 -2 -11 9 -14 8 -14 -3 0
-8 4 -15 9 -15 5 0 7 -4 3 -10 -3 -5 -12 -7 -20 -3 -8 3 -15 0 -15 -7 0 -6 5
-8 10 -5 6 3 10 1 10 -5 0 -6 5 -8 12 -4 7 4 8 3 4 -4 -4 -7 -14 -12 -22 -12
-15 0 -15 -25 0 -49 7 -11 5 -13 -7 -8 -11 4 -14 2 -10 -8 3 -8 8 -13 12 -10
4 2 8 -2 8 -9 0 -8 -7 -12 -15 -9 -12 5 -12 2 -3 -15 8 -16 9 -22 1 -22 -6 0
-8 -4 -5 -10 11 -18 14 -51 4 -45 -12 8 -11 -6 1 -25 6 -9 5 -17 -3 -22 -9 -6
-9 -8 1 -8 9 0 10 -5 3 -19 -6 -10 -8 -21 -4 -24 3 -4 0 -14 -8 -24 -12 -14
-12 -16 0 -8 11 6 13 4 8 -7 -3 -9 -1 -20 5 -26 6 -6 6 -12 -1 -16 -8 -5 -8
-13 0 -27 7 -15 7 -24 -2 -35 -7 -9 -8 -14 -1 -14 6 0 10 -9 9 -19 0 -11 -6
-17 -12 -13 -5 3 -4 -2 4 -11 7 -9 10 -17 5 -17 -5 0 -8 -18 -8 -40 2 -57 2
-56 26 -67 19 -8 20 -10 4 -16 -12 -5 -15 -3 -10 6 4 6 3 9 -1 4 -5 -4 -9 -18
-10 -32 0 -13 1 -22 3 -20 6 5 32 -21 32 -32 0 -5 7 -18 15 -29 15 -19 15 -19
8 1 -6 17 -4 18 9 8 8 -7 18 -11 22 -8 3 3 2 -1 -4 -7 -14 -17 -13 -35 2 -20
15 15 32 16 23 2 -3 -5 -2 -10 4 -10 5 0 13 5 16 10 4 6 11 7 17 4 6 -4 5 -10
-3 -15 -8 -5 -9 -9 -3 -9 6 0 18 7 25 16 14 18 22 47 10 39 -4 -2 -8 2 -8 9 0
8 7 12 15 8 10 -3 13 -1 8 6 -4 7 -1 12 8 12 9 0 16 5 16 11 0 5 -5 7 -11 4
-6 -4 -5 2 2 13 7 12 18 18 24 14 5 -3 4 1 -3 10 -10 13 -10 18 -1 24 8 5 10
3 4 -7 -5 -8 4 -3 18 10 21 19 24 27 15 38 -6 8 -7 13 -2 12 5 -1 16 -1 24 0
12 1 13 3 1 10 -10 6 -10 13 -2 28 5 11 7 24 3 28 -4 5 -1 5 6 1 9 -5 9 -12 1
-29 -10 -20 -9 -20 13 3 14 14 21 27 17 28 -5 2 -9 8 -9 14 0 6 7 7 16 4 12
-5 15 -2 10 10 -5 12 -2 15 10 10 15 -6 15 -4 3 11 -8 9 -9 14 -3 10 7 -4 15
0 18 9 3 9 12 14 20 11 9 -4 13 2 12 15 0 12 6 23 14 25 13 4 13 3 0 -7 -10
-8 -11 -10 -2 -8 8 2 14 8 14 13 0 6 5 19 11 30 6 11 10 23 9 26 -1 4 8 5 18
2 17 -4 19 -2 13 13 -6 17 -5 18 12 4 17 -14 18 -13 12 3 -3 9 -2 17 4 17 6 0
7 5 3 12 -4 7 -3 8 5 4 6 -4 8 -13 5 -19 -5 -9 -4 -9 5 -1 7 6 14 19 15 29 1
10 11 19 20 21 26 4 32 14 16 25 -13 9 -13 10 -1 7 8 -3 31 3 50 13 28 13 39
15 51 6 13 -10 13 -10 2 5 -8 9 -21 15 -30 12 -9 -2 -4 2 13 10 16 7 35 12 42
9 8 -3 13 3 13 16 0 13 5 19 14 15 8 -3 17 0 21 5 3 6 9 9 13 7 4 -2 13 3 21
11 12 13 11 14 -10 8 -23 -7 -23 -7 -4 8 11 8 23 13 27 11 4 -2 10 1 14 7 4 7
3 9 -3 6 -6 -4 -13 2 -16 13 -3 11 -1 20 4 20 6 0 5 8 -1 19 -14 27 -13 31 8
31 9 0 13 4 7 8 -13 9 -17 32 -6 32 5 0 12 -6 15 -12 3 -7 3 -1 1 15 -2 16 1
27 8 27 7 0 6 4 -3 10 -12 8 -12 10 3 16 15 5 15 9 5 22 -11 13 -10 15 5 9 9
-3 17 -2 17 3 0 6 -4 10 -8 10 -4 0 -8 8 -9 19 -1 12 5 18 15 17 12 -1 17 7
17 24 -1 14 5 29 13 33 11 7 11 12 0 25 -7 9 -8 14 -4 10 5 -4 15 4 23 18 15
30 17 46 3 24 -7 -11 -10 -11 -10 -2 0 7 11 24 24 37 17 17 21 26 12 35 -8 8
-7 10 5 5 17 -6 20 19 5 43 -7 11 -4 11 13 0 12 -7 21 -21 21 -30 0 -10 4 -18
8 -18 4 0 8 -18 7 -40 -1 -29 2 -37 11 -29 8 6 14 5 18 -6 3 -8 0 -15 -6 -15
-7 0 -3 -7 8 -16 10 -8 14 -13 8 -10 -7 3 -15 -1 -18 -10 -3 -8 -2 -12 4 -9 6
4 17 -1 26 -9 8 -9 11 -16 5 -16 -6 0 -11 -4 -11 -10 0 -5 3 -9 8 -9 20 3 32
-2 29 -13 -1 -7 4 -12 12 -10 12 3 12 1 0 -14 -12 -16 -12 -17 3 -11 13 4 15
2 11 -10 -5 -12 -2 -15 10 -10 15 6 16 3 7 -13 -12 -22 -1 -27 17 -9 9 9 10 6
6 -11 -5 -19 -3 -22 10 -17 19 7 35 -11 32 -36 -3 -15 -1 -16 11 -6 11 9 19 6
39 -12 13 -13 25 -31 25 -39 0 -12 2 -12 9 -2 6 11 9 10 13 -5 4 -14 13 -18
41 -17 33 2 36 0 26 -17 -12 -24 -1 -25 18 -1 8 9 12 12 9 6 -8 -17 20 -39 30
-23 5 8 3 9 -6 4 -9 -5 -11 -4 -6 4 6 8 12 9 20 2 7 -6 17 -7 22 -3 4 4 3 0
-3 -8 -10 -13 -8 -16 7 -16 10 0 16 5 13 11 -4 5 -3 7 2 3 4 -4 15 -2 23 5 13
9 14 9 8 0 -4 -8 -2 -13 4 -13 6 0 9 -4 6 -8 -2 -4 6 -9 20 -10 13 -1 24 3 24
8 0 5 -8 7 -17 4 -15 -5 -16 -4 -3 5 9 6 19 6 24 1 4 -4 15 -6 24 -3 8 4 21
-2 30 -13 14 -19 15 -19 8 1 -4 11 -4 16 0 12 4 -4 14 -1 23 6 14 10 14 10 3
-5 -12 -15 -10 -16 15 -14 37 4 64 16 58 26 -3 5 9 6 26 3 24 -3 29 -2 23 9
-6 10 -4 10 9 -1 17 -13 21 -9 19 19 0 3 19 5 42 4 39 -1 43 1 40 23 -1 13 2
21 7 17 5 -3 6 -10 3 -16 -4 -6 2 -6 15 1 11 7 21 14 21 17 0 3 -5 2 -12 -2
-7 -4 -8 -3 -4 5 6 9 11 9 21 1 10 -8 15 -8 21 1 4 8 3 9 -4 5 -18 -11 -14 2
6 23 9 10 25 17 34 16 14 -3 16 0 8 14 -8 16 -5 17 18 14 18 -3 23 -2 14 5
-10 7 -10 11 2 21 8 7 21 9 27 5 7 -4 9 -3 5 4 -3 5 0 13 6 15 10 4 10 6 1 6
-7 1 -13 6 -13 12 0 6 9 8 23 4 22 -7 22 -7 2 9 -11 9 -15 16 -10 15 30 -4 37
1 25 16 -7 9 -10 18 -6 22 3 3 6 2 6 -4 0 -5 6 -10 14 -10 8 0 12 6 8 15 -4
11 -2 13 9 7 12 -7 12 -6 1 7 -11 14 -9 20 15 42 15 14 23 26 18 26 -6 0 -3 5
5 11 13 9 13 10 0 6 -8 -2 -14 -9 -13 -15 2 -6 -4 -9 -12 -5 -14 5 -13 7 1 18
9 6 14 17 10 23 -4 8 -2 10 8 6 12 -5 15 2 13 35 -2 28 2 41 10 41 7 0 13 5
13 11 0 5 -4 8 -9 4 -5 -3 -13 -1 -16 5 -4 6 -3 9 2 8 4 -2 10 2 11 7 2 6 8
16 14 23 8 9 7 11 -6 6 -9 -3 -16 -1 -16 5 0 6 3 11 8 11 4 0 13 10 21 23 12
19 12 20 0 10 -8 -7 -20 -8 -28 -4 -9 6 -7 10 8 14 14 3 19 10 15 21 -3 9 -11
13 -16 10 -6 -4 -5 -10 3 -15 10 -6 10 -9 2 -9 -20 0 -23 16 -8 36 17 23 19
34 4 34 -5 0 -8 -4 -5 -9 3 -5 -1 -12 -9 -15 -13 -5 -14 -2 -4 15 8 16 8 23
-1 29 -9 6 -9 9 1 13 12 5 12 6 0 6 -11 1 -11 4 0 18 8 9 9 14 3 10 -7 -4 -15
0 -18 9 -3 8 -2 12 4 9 5 -3 7 1 4 9 -3 8 -11 13 -19 10 -8 -4 -11 3 -10 20 2
14 -1 26 -6 26 -5 0 -9 9 -9 21 0 16 -4 19 -22 14 -18 -5 -20 -4 -8 4 13 10
12 14 -8 29 -18 14 -20 20 -10 30 9 9 7 12 -11 12 -19 0 -21 3 -12 14 9 11 9
16 0 22 -8 4 -9 3 -5 -4 4 -7 3 -12 -3 -12 -5 0 -13 9 -16 20 -7 22 -25 28
-25 8 0 -6 -3 -8 -6 -5 -4 4 -1 14 6 22 11 13 11 16 -1 13 -8 -2 -13 2 -12 9
2 7 -3 10 -11 7 -8 -3 -17 -1 -20 5 -4 6 -14 8 -24 5 -13 -5 -14 -4 -4 4 11 7
10 10 -3 16 -9 3 -22 3 -28 -1 -7 -3 -9 -3 -5 2 4 4 0 14 -8 23 -14 13 -17 13
-25 1 -5 -8 -9 -9 -9 -3 0 5 4 14 10 20 6 6 3 10 -9 10 -11 0 -17 -5 -13 -11
3 -5 -6 -2 -21 8 -30 19 -41 22 -32 7 10 -16 -1 -11 -16 7 -12 15 -12 16 1 8
12 -6 13 -5 3 5 -13 14 -56 22 -47 9 7 -13 -20 -4 -46 14 -13 9 -18 17 -11 17
8 0 19 -8 26 -17 12 -16 12 -14 8 10 -3 17 -1 27 6 27 7 0 9 -6 6 -12 -4 -7 3
0 15 15 16 19 26 25 34 18 7 -6 17 -6 26 -1 8 6 11 10 6 10 -6 0 -1 6 10 14
15 11 22 12 33 3 12 -10 13 -9 6 2 -6 11 -3 13 13 9 12 -4 20 -3 17 2 -3 4 2
11 11 14 10 4 13 2 8 -7 -5 -8 -2 -8 9 2 9 7 24 11 32 7 12 -4 13 -2 6 12 -8
15 -3 17 50 16 34 0 56 3 52 9 -3 5 4 6 18 2 20 -7 22 -6 12 7 -10 12 -10 15
2 15 8 0 15 -5 15 -11 0 -5 7 -1 16 10 8 10 13 13 9 7 -3 -7 -1 -13 4 -13 6 0
11 6 11 13 0 8 4 7 10 -3 9 -13 10 -13 10 0 0 12 2 13 9 1 6 -9 10 -10 12 -2
3 7 11 13 19 14 8 2 20 6 27 10 6 4 15 2 19 -4 4 -7 3 -9 -4 -5 -6 3 -13 2
-17 -4 -4 -6 -10 -8 -15 -5 -5 3 -11 1 -14 -4 -7 -11 13 -9 32 2 6 5 12 6 12
3 0 -3 16 3 35 14 19 11 35 15 35 9 0 -5 4 -8 9 -4 6 3 14 -3 20 -12 7 -12 10
-13 11 -4 0 8 6 11 16 7 9 -3 12 -2 9 5 -4 6 0 9 11 7 25 -4 30 48 6 57 -12 4
-13 8 -5 13 9 5 5 12 -10 21 -20 13 -21 13 -8 -2 9 -12 10 -17 2 -17 -6 0 -14
13 -17 29 -5 22 -13 30 -36 35 -26 5 -30 10 -26 31 4 21 3 23 -13 15 -15 -9
-17 -7 -14 11 4 18 2 19 -12 7 -12 -9 -15 -9 -9 0 4 6 2 12 -3 12 -6 0 -11 8
-12 18 0 14 -2 14 -9 -3 -8 -18 -9 -18 -9 -2 -1 12 -5 16 -13 11 -8 -5 -7 0 2
11 13 16 13 18 0 13 -8 -3 -21 2 -28 11 -8 9 -11 11 -8 4 4 -6 1 -15 -5 -19
-8 -4 -9 -3 -5 4 4 7 2 12 -5 12 -7 0 -10 3 -6 6 9 10 -16 32 -31 27 -8 -4
-10 1 -6 13 6 16 5 17 -7 6 -11 -11 -18 -7 -40 20 -23 28 -29 30 -43 19 -9 -8
-19 -11 -23 -7 -3 3 -2 6 4 6 5 0 10 7 10 15 0 8 -4 12 -8 10 -3 -3 -12 2 -19
10 -10 12 -16 13 -28 3 -11 -9 -14 -9 -9 -1 4 6 3 14 -3 18 -5 3 -10 -2 -11
-12 -1 -13 -3 -11 -9 7 -7 21 -8 22 -9 5 -2 -20 -2 -20 -16 -1 -8 11 -16 16
-16 10z m100 -38 c9 -11 9 -16 -1 -22 -7 -4 -10 -4 -6 1 4 4 3 14 -3 22 -6 7
-9 13 -6 13 2 0 10 -6 16 -14z m65 -34 c3 -5 -1 -9 -9 -9 -8 0 -12 4 -9 9 3 4
7 8 9 8 2 0 6 -4 9 -8z m-400 -33 c-3 -5 -10 -7 -15 -3 -5 3 -7 10 -3 15 3 5
10 7 15 3 5 -3 7 -10 3 -15z m-188 -81 c4 -7 3 -8 -4 -4 -7 4 -12 2 -12 -5 0
-7 -3 -10 -6 -6 -6 5 3 27 11 27 2 0 7 -5 11 -12z m-118 -43 c-3 -3 -9 2 -12
12 -6 14 -5 15 5 6 7 -7 10 -15 7 -18z m-758 -335 c-8 -5 -19 -10 -25 -10 -5
0 -3 5 5 10 8 5 20 10 25 10 6 0 3 -5 -5 -10z m-50 -170 c0 -5 -2 -10 -4 -10
-3 0 -8 5 -11 10 -3 6 -1 10 4 10 6 0 11 -4 11 -10z m-93 -662 c-3 -8 -6 -5
-6 6 -1 11 2 17 5 13 3 -3 4 -12 1 -19z m480 -94 c-3 -3 -12 -4 -19 -1 -8 3
-5 6 6 6 11 1 17 -2 13 -5z m-19 -59 c-3 -3 -9 2 -12 12 -6 14 -5 15 5 6 7 -7
10 -15 7 -18z m-838 -250 c7 -9 8 -15 2 -15 -5 0 -12 7 -16 15 -3 8 -4 15 -2
15 2 0 9 -7 16 -15z m1656 -7 c5 4 5 3 1 -2 -12 -15 -34 -15 -34 0 0 9 4 11
12 4 7 -5 16 -6 21 -2z m-1670 -538 c0 -12 -4 -16 -9 -11 -5 5 -6 14 -3 20 10
15 12 14 12 -9z m254 -4 c0 -3 -4 -8 -10 -11 -5 -3 -10 -1 -10 4 0 6 5 11 10
11 6 0 10 -2 10 -4z"/>
<path d="M2155 4561 c-3 -5 -2 -12 3 -15 5 -3 9 1 9 9 0 17 -3 19 -12 6z"/>
<path d="M2516 4545 c4 -8 11 -15 16 -15 6 0 5 6 -2 15 -7 8 -14 15 -16 15 -2
0 -1 -7 2 -15z"/>
<path d="M4116 4442 c-3 -5 1 -9 9 -9 8 0 12 4 9 9 -3 4 -7 8 -9 8 -2 0 -6 -4
-9 -8z"/>
<path d="M2387 4369 c7 -7 15 -10 18 -7 3 3 -2 9 -12 12 -14 6 -15 5 -6 -5z"/>
<path d="M2496 4213 c-6 -14 -5 -15 5 -6 7 7 10 15 7 18 -3 3 -9 -2 -12 -12z"/>
<path d="M2370 4202 c0 -4 10 -9 22 -9 18 -2 20 0 8 7 -18 12 -30 13 -30 2z"/>
<path d="M1905 4090 c-3 -5 -1 -10 4 -10 6 0 11 5 11 10 0 6 -2 10 -4 10 -3 0
-8 -4 -11 -10z"/>
<path d="M1836 4055 c-9 -26 -7 -32 5 -12 6 10 9 21 6 23 -2 3 -7 -2 -11 -11z"/>
<path d="M3230 4005 c0 -7 30 -13 34 -7 3 4 -4 9 -15 9 -10 1 -19 0 -19 -2z"/>
<path d="M2160 3766 c0 -2 7 -6 15 -10 8 -3 15 -1 15 4 0 6 -7 10 -15 10 -8 0
-15 -2 -15 -4z"/>
<path d="M4430 3661 c0 -6 4 -13 10 -16 6 -3 7 1 4 9 -7 18 -14 21 -14 7z"/>
<path d="M4565 3360 c-3 -6 1 -7 9 -4 18 7 21 14 7 14 -6 0 -13 -4 -16 -10z"/>
<path d="M4827 2983 c3 -7 10 -10 16 -6 6 3 7 1 3 -6 -6 -9 -11 -9 -22 0 -12
10 -13 9 -8 -6 5 -12 4 -16 -4 -11 -7 4 -9 -2 -6 -19 3 -20 0 -25 -15 -25 -15
0 -19 -5 -14 -17 4 -10 2 -14 -4 -10 -7 5 -10 -2 -8 -18 2 -18 -2 -25 -13 -23
-12 2 -16 -5 -15 -29 0 -18 -4 -30 -9 -27 -4 3 -5 10 -2 16 4 7 2 8 -4 4 -6
-4 -9 -13 -6 -20 3 -8 -7 -26 -23 -41 -15 -15 -21 -24 -13 -20 12 7 13 6 2 -6
-11 -12 -14 -12 -22 1 -6 9 -10 10 -10 3 0 -6 5 -15 10 -18 14 -8 -6 -35 -26
-35 -7 0 -16 -5 -20 -12 -5 -7 -3 -8 6 -3 8 5 11 3 8 -6 -3 -8 -12 -13 -21
-11 -8 1 -19 -3 -23 -9 -4 -8 -3 -9 4 -5 7 4 12 2 12 -3 0 -10 -14 -15 -32
-12 -4 0 -4 -7 -1 -16 5 -13 2 -15 -12 -10 -16 7 -16 5 -4 -10 12 -14 12 -16
0 -8 -11 6 -13 4 -7 -10 5 -15 4 -16 -9 -5 -13 11 -15 9 -15 -10 0 -13 -3 -21
-6 -17 -4 3 -13 -1 -21 -9 -8 -8 -18 -12 -23 -9 -4 3 -7 -3 -6 -13 1 -11 -6
-17 -20 -16 -16 0 -20 -5 -18 -21 1 -18 -2 -21 -22 -17 -18 3 -23 1 -19 -9 3
-8 -5 -20 -17 -28 -21 -13 -22 -13 -9 3 8 9 11 19 7 23 -3 3 -6 1 -6 -6 0 -7
-5 -9 -10 -6 -6 4 -10 3 -9 -2 1 -4 1 -16 0 -26 -1 -14 -5 -16 -20 -8 -14 8
-22 7 -30 -3 -6 -7 -8 -16 -4 -19 3 -4 -1 -7 -9 -7 -9 0 -18 -5 -20 -10 -2 -6
-13 -12 -25 -13 -21 -1 -22 -2 -5 -21 16 -20 16 -20 -1 -7 -9 8 -20 11 -23 8
-13 -13 -21 -75 -11 -92 6 -12 6 -16 -1 -11 -6 3 -13 2 -17 -4 -3 -5 0 -10 7
-11 7 0 4 -4 -7 -9 -11 -5 -14 -9 -7 -9 19 -1 14 -17 -10 -30 -13 -6 -15 -10
-6 -7 9 3 19 -2 22 -10 3 -8 2 -13 -3 -10 -5 3 -15 -2 -22 -11 -8 -9 -9 -14
-3 -10 7 4 14 0 17 -8 4 -9 1 -12 -8 -9 -11 5 -12 0 -5 -28 9 -31 8 -32 -6
-13 -15 19 -16 18 -12 -17 3 -32 2 -35 -11 -25 -11 9 -13 9 -8 0 4 -6 3 -15
-3 -18 -8 -5 -7 -12 2 -23 11 -13 10 -15 -4 -9 -10 3 -20 2 -23 -4 -4 -5 -1
-8 6 -7 6 2 14 -3 17 -11 3 -8 0 -11 -7 -7 -10 6 -17 -20 -12 -47 1 -5 -3 -6
-9 -2 -5 3 -13 0 -16 -9 -3 -8 -13 -12 -22 -9 -14 4 -15 3 -2 -5 10 -8 19 -7
30 1 10 8 9 5 -3 -9 -9 -11 -14 -24 -10 -28 4 -4 0 -4 -10 0 -9 3 -17 2 -17
-4 0 -6 5 -12 11 -14 7 -2 4 -10 -7 -18 -10 -8 -15 -10 -12 -4 4 5 -6 25 -22
44 -16 19 -27 37 -24 42 3 4 2 14 -3 21 -12 19 -12 38 -1 31 6 -4 5 2 -1 15
-7 11 -8 21 -4 21 4 0 -6 13 -22 28 -17 15 -25 23 -18 18 10 -6 12 -4 7 8 -6
15 -18 20 -37 17 -5 -1 -6 3 -3 8 3 5 -1 12 -10 15 -8 3 -12 11 -8 17 4 7 -4
20 -17 31 -13 11 -19 17 -12 14 6 -4 14 -3 17 2 8 13 -28 11 -37 -2 -5 -6 -5
-1 -2 12 5 16 2 22 -10 22 -11 0 -15 5 -12 14 4 11 1 13 -10 9 -10 -4 -14 -2
-10 4 4 6 -3 9 -18 7 -14 -1 -23 2 -19 7 3 5 10 7 15 4 5 -4 9 -1 9 5 0 6 -8
10 -17 9 -32 -3 -41 1 -45 19 -3 10 -12 19 -21 19 -9 0 -14 -3 -12 -7 2 -4 -2
-7 -10 -7 -8 0 -13 3 -10 5 3 3 -12 14 -32 24 -21 10 -29 16 -18 13 16 -5 17
-4 8 6 -10 10 -15 9 -28 -1 -8 -7 -15 -8 -15 -2 0 5 -7 13 -16 16 -8 3 -12 2
-9 -3 3 -5 1 -12 -5 -16 -5 -3 -10 -1 -10 5 0 6 -4 8 -10 5 -5 -3 -10 -1 -10
4 0 6 5 11 12 11 6 0 9 2 6 5 -12 12 -37 -7 -30 -23 5 -16 5 -16 -11 0 -9 9
-17 23 -17 30 0 10 -3 10 -9 -2 -6 -8 -7 -18 -5 -22 3 -4 -2 -5 -11 -1 -14 5
-14 8 -3 15 10 8 9 9 -4 5 -9 -3 -19 -1 -22 6 -3 7 -3 2 -1 -10 3 -12 1 -24
-4 -28 -7 -3 -8 0 -5 9 7 17 -11 22 -21 7 -3 -6 -15 -8 -27 -6 -12 3 -26 -1
-30 -8 -6 -9 -8 -9 -8 2 0 11 -3 11 -17 0 -16 -13 -17 -12 -4 3 7 10 17 15 22
12 5 -3 9 0 9 5 0 16 -8 14 -40 -9 -24 -17 -56 -20 -78 -6 -5 3 -9 -1 -9 -8 0
-8 6 -12 13 -9 6 2 15 -1 20 -8 4 -8 3 -10 -5 -5 -6 4 -23 1 -36 -8 -17 -11
-26 -13 -31 -4 -4 6 -3 8 4 4 6 -3 13 -2 16 3 7 11 -13 9 -32 -2 -7 -5 -10
-14 -6 -20 3 -7 -1 -4 -9 6 -13 16 -15 16 -21 2 -3 -9 -2 -13 4 -10 6 3 10 1
10 -6 0 -7 -10 -9 -25 -7 -18 4 -23 2 -16 -6 7 -8 4 -12 -10 -13 -12 -1 -17 2
-13 10 4 7 3 8 -2 4 -5 -5 -10 -13 -10 -18 -1 -5 -2 -13 -3 -19 0 -5 -6 -10
-12 -10 -5 0 -7 6 -4 13 4 6 -5 0 -18 -15 -14 -15 -27 -25 -30 -22 -2 3 -3 -7
-1 -21 2 -23 0 -24 -14 -13 -9 7 -13 8 -10 3 4 -6 3 -17 -3 -25 -7 -13 -9 -13
-9 0 0 13 -1 13 -10 0 -6 -9 -5 -17 3 -23 8 -6 4 -7 -10 -4 -23 5 -28 -11 -8
-25 6 -5 5 -8 -3 -8 -7 0 -10 -5 -7 -10 8 -13 -18 -8 -27 5 -5 6 -8 6 -8 -2 0
-7 7 -16 16 -21 15 -8 15 -10 0 -15 -10 -4 -15 -3 -11 3 3 6 1 10 -4 10 -15 0
-14 -13 2 -29 10 -11 9 -12 -2 -6 -11 6 -13 4 -8 -10 6 -14 3 -16 -15 -12 -22
6 -22 5 -4 -8 19 -15 19 -15 -5 -15 -18 0 -21 -2 -10 -9 13 -8 13 -12 0 -27
-9 -11 -9 -15 -1 -10 6 4 12 3 12 -2 0 -6 -7 -13 -16 -16 -8 -3 -13 -10 -10
-15 4 -5 0 -12 -6 -15 -7 -3 -2 -4 12 -1 14 3 19 2 12 -1 -6 -3 -9 -11 -5 -17
4 -6 0 -8 -9 -5 -8 4 -15 0 -15 -8 0 -7 5 -11 11 -8 6 3 2 -2 -8 -10 -11 -9
-15 -16 -8 -16 20 0 35 -39 21 -56 -6 -8 -8 -14 -3 -14 4 0 3 -5 -4 -12 -8 -8
-8 -17 -1 -30 6 -11 8 -26 5 -34 -3 -9 1 -14 12 -14 15 -1 15 -2 -1 -11 -17
-10 -18 -12 -1 -30 12 -13 14 -22 6 -31 -7 -9 -6 -19 5 -33 13 -16 15 -17 10
-2 -4 9 -2 17 3 17 6 0 10 -12 10 -26 0 -16 4 -23 11 -18 7 4 7 -1 -1 -16 -9
-17 -9 -21 0 -15 9 5 10 1 5 -16 -5 -18 -4 -20 4 -9 9 13 13 12 28 -4 17 -19
17 -19 -1 -5 -18 13 -19 13 -8 -7 6 -12 8 -25 4 -30 -4 -5 0 -3 9 4 21 16 31
4 17 -22 -10 -18 -9 -19 4 -8 12 10 17 10 27 -1 6 -8 8 -17 4 -20 -5 -6 9 -11
27 -9 3 0 7 -8 7 -19 2 -25 22 -51 33 -44 5 3 11 1 15 -5 4 -6 12 -8 18 -4 7
3 4 -1 -6 -9 -16 -13 -16 -15 -2 -21 9 -3 14 -2 12 2 -3 4 2 13 10 21 13 12
14 11 8 -9 -6 -19 -4 -22 10 -16 14 5 15 4 7 -7 -8 -10 -6 -13 8 -13 10 0 16
4 14 8 -3 4 0 8 5 8 6 0 11 -6 11 -14 0 -16 54 -41 69 -31 6 3 11 1 11 -4 0
-6 9 -11 20 -11 12 0 20 -7 21 -17 0 -15 2 -15 7 -3 10 23 32 18 51 -10 9 -13
11 -21 4 -17 -6 4 -13 2 -16 -5 -2 -7 -2 -2 0 12 l3 25 -13 -23 c-7 -12 -16
-19 -20 -16 -4 4 -7 2 -7 -4 0 -6 -10 -9 -22 -7 -22 4 -22 4 -4 -10 15 -11 16
-15 5 -16 -15 -1 -31 -5 -39 -8 -18 -9 -39 -8 -34 1 5 7 2 8 -5 4 -7 -5 -10
-15 -7 -23 3 -8 2 -11 -3 -8 -5 3 -13 0 -16 -5 -5 -8 -14 -5 -28 7 -11 10 -18
14 -15 8 3 -5 -3 -18 -14 -28 -10 -9 -18 -14 -18 -10 0 5 -7 -1 -15 -11 -10
-13 -15 -15 -15 -6 0 7 -3 10 -7 7 -3 -4 -12 -2 -19 4 -8 7 -14 6 -20 -2 -5
-8 -3 -9 6 -4 9 5 11 4 6 -4 -4 -6 -13 -8 -19 -4 -17 11 -38 13 -32 3 3 -5 -4
-11 -15 -15 -12 -4 -17 -11 -13 -18 4 -7 -6 -4 -21 7 -16 10 -25 13 -22 7 4
-6 1 -11 -6 -12 -7 -1 -22 -2 -33 -3 -11 0 -29 3 -40 8 -18 8 -19 8 -6 -8 12
-15 12 -17 0 -14 -8 2 -20 10 -27 18 -8 8 -11 10 -8 3 7 -13 -3 -43 -13 -43
-4 0 -8 7 -8 15 0 8 5 11 10 8 6 -4 7 -1 2 7 -6 10 -13 8 -28 -11 -11 -13 -18
-17 -15 -8 4 9 1 16 -7 16 -7 0 -11 -6 -8 -14 3 -7 1 -13 -5 -13 -5 0 -13 8
-17 18 -6 16 -7 16 -21 -2 -8 -11 -14 -15 -14 -9 0 6 -7 14 -16 17 -15 6 -15
4 -3 -11 12 -15 12 -16 -3 -11 -17 7 -28 -8 -21 -30 3 -6 10 -9 16 -5 6 4 8 0
4 -9 -4 -11 2 -18 17 -22 18 -4 23 -12 21 -31 -3 -22 -1 -24 18 -13 20 10 21
10 8 -6 -12 -14 -12 -16 4 -10 13 5 16 4 11 -4 -4 -8 0 -12 11 -12 15 0 16 -2
3 -11 -12 -9 -11 -10 7 -6 19 4 21 2 13 -12 -6 -13 -5 -18 5 -18 8 0 11 5 8
10 -3 6 -1 7 5 3 7 -4 12 -17 13 -29 0 -12 3 -16 6 -9 4 10 9 9 20 -5 8 -10
12 -12 8 -6 -4 9 -1 11 10 7 11 -5 13 -10 5 -19 -8 -10 -8 -15 1 -21 8 -4 9
-3 5 4 -4 7 -1 12 9 12 9 0 13 -4 10 -10 -3 -5 0 -10 7 -10 8 0 20 -9 28 -20
8 -11 25 -20 37 -20 13 0 23 -5 23 -11 0 -5 -6 -7 -12 -3 -8 4 -10 3 -5 -2 5
-5 14 -9 20 -9 7 -1 11 -7 9 -14 -1 -7 2 -10 8 -6 6 3 8 11 5 16 -3 5 1 6 9 3
8 -3 13 -16 11 -31 l-3 -26 20 24 c11 13 18 20 15 14 -2 -5 5 -19 16 -30 11
-12 17 -14 13 -5 -5 9 -2 8 7 -3 15 -18 33 -24 23 -8 -4 5 2 8 11 7 9 -2 19
-9 21 -17 3 -11 1 -11 -7 1 -6 8 -11 10 -11 4 0 -20 11 -22 38 -8 30 16 55 19
32 4 -9 -6 -10 -10 -3 -10 6 0 14 4 17 9 3 5 19 7 36 6 16 -1 27 1 24 6 -3 5
-9 7 -13 5 -4 -3 -8 2 -8 10 0 10 4 11 11 4 6 -6 16 -4 30 8 20 16 20 16 7 0
-9 -13 -10 -18 -2 -18 6 0 16 10 21 23 9 22 9 22 10 -3 1 -25 1 -25 10 -3 5
13 15 23 22 23 9 0 9 -3 -2 -11 -13 -9 -13 -10 0 -6 8 2 15 11 14 19 -1 16 23
17 45 3 10 -6 13 -4 9 6 -4 11 1 15 22 13 20 -1 27 3 26 14 0 9 4 17 11 17 6
0 15 3 18 7 4 4 16 3 26 -2 15 -8 17 -7 14 10 -3 16 -1 18 13 11 12 -6 23 -5
36 4 10 8 23 12 29 11 7 -2 9 -1 5 1 -16 9 -7 25 11 20 14 -3 18 -1 14 9 -3 8
0 14 6 14 6 0 11 -4 11 -10 0 -5 5 -10 10 -10 6 0 9 3 9 8 -3 20 3 28 22 29
21 2 21 1 3 -13 -17 -13 -16 -13 10 -4 26 9 28 9 16 -5 -7 -8 -10 -18 -6 -22
3 -3 6 -1 6 6 0 7 4 9 10 6 6 -3 10 0 10 7 0 10 2 11 8 0 5 -7 16 -10 24 -7 9
4 19 2 22 -4 4 -6 14 -8 24 -5 14 5 15 4 2 -5 -11 -8 -12 -11 -2 -11 7 0 11
-4 7 -9 -5 -10 27 -7 44 3 5 3 23 -8 40 -24 17 -17 31 -26 31 -21 0 6 -4 13
-10 16 -5 3 -10 10 -10 16 0 5 8 1 18 -8 11 -10 17 -22 14 -28 -3 -5 -2 -7 3
-3 4 4 17 3 28 -3 15 -8 18 -8 12 1 -5 9 -1 10 16 6 23 -7 24 -7 4 9 -19 15
-19 16 5 13 16 -2 24 2 22 10 -2 10 2 10 19 2 19 -11 20 -10 9 9 -13 26 -7 27
16 4 17 -17 17 -17 12 4 -4 14 0 27 11 35 14 11 15 11 6 -2 -5 -9 -2 -8 7 3 9
10 26 19 37 20 11 1 19 3 17 5 -2 2 7 14 21 28 13 13 21 29 18 34 -3 6 0 11 7
11 7 1 19 2 27 3 8 0 16 8 18 16 4 13 3 13 -7 0 -10 -13 -11 -13 -7 0 2 8 12
15 23 15 12 0 18 6 16 18 -3 17 12 24 21 10 2 -5 2 -2 0 6 -2 9 2 11 13 7 15
-6 15 -4 3 11 -12 15 -12 16 4 10 11 -4 16 -3 12 3 -3 6 -1 10 6 10 8 0 7 5
-2 17 -13 15 -12 15 9 4 13 -7 26 -10 30 -7 3 3 1 6 -5 6 -5 0 -10 7 -10 15 0
12 3 12 16 2 12 -9 13 -9 7 1 -4 7 -2 12 6 12 10 0 10 2 -1 9 -9 6 -10 11 -2
15 6 4 16 4 23 0 7 -4 8 -3 4 5 -4 6 0 14 9 17 13 6 14 8 3 15 -9 6 -6 9 11 9
16 0 21 4 18 14 -8 19 3 28 19 15 10 -8 11 -5 7 12 -5 18 -3 21 10 16 12 -4
15 -1 12 14 -3 16 0 19 12 15 14 -6 14 -4 2 11 -12 15 -12 16 4 10 9 -3 17 -2
17 3 0 6 -4 10 -8 10 -5 0 -9 19 -10 43 -1 58 -7 82 -20 83 -25 3 -27 5 -12
14 12 8 13 11 1 19 -11 7 -11 10 0 15 8 3 3 4 -9 2 -22 -4 -23 -3 -8 13 14 16
14 19 -2 34 -15 16 -15 19 -2 28 13 9 12 10 -2 5 -14 -4 -17 0 -14 24 2 16 -1
27 -5 24 -5 -3 -9 -1 -9 5 0 5 6 12 13 15 6 3 2 3 -10 0 -16 -4 -21 -1 -19 12
2 10 11 21 22 25 10 4 13 8 6 8 -7 1 -10 6 -7 11 4 6 11 8 16 5 5 -3 6 0 3 8
-3 8 2 21 10 29 11 12 12 18 3 28 -10 10 -7 10 11 0 22 -11 23 -10 12 11 -11
19 -10 21 4 16 10 -4 15 -3 12 2 -3 5 1 14 9 21 12 10 13 16 4 26 -9 11 -8 14
6 14 14 0 15 3 5 15 -10 12 -8 13 10 10 18 -3 20 -2 10 10 -9 11 -9 15 -1 15
9 0 9 6 0 23 -11 20 -11 21 5 8 9 -8 16 -10 15 -5 -4 21 2 28 12 14 9 -13 10
-13 6 0 -2 8 -12 14 -22 12 -14 -3 -15 -1 -4 11 8 8 19 12 24 9 6 -3 4 2 -4
11 -11 14 -11 18 3 23 14 5 14 9 4 22 -12 14 -10 14 11 3 19 -10 22 -10 16 0
-12 18 -15 60 -4 53 5 -3 7 -9 4 -14 -3 -5 -2 -11 2 -13 5 -3 9 8 9 24 1 16
-3 26 -8 23 -6 -4 -5 3 1 14 6 12 16 24 21 27 6 3 10 12 10 18 0 8 -3 8 -9 -1
-7 -11 -9 -10 -14 3 -4 9 -3 14 3 10 6 -3 13 1 16 9 3 9 11 13 18 9 6 -3 8 -3
4 2 -4 4 -1 14 7 21 17 17 29 18 19 2 -4 -7 -3 -8 5 -4 6 4 9 12 6 17 -4 5 -1
9 5 9 6 0 8 5 4 12 -4 7 -3 8 5 4 6 -4 9 -12 6 -17 -3 -5 1 -6 9 -3 9 3 14 10
11 15 -3 4 5 13 17 20 22 12 22 11 8 -7 -14 -17 -13 -18 1 -7 9 7 19 10 23 6
4 -4 4 1 0 11 -5 14 -4 17 4 12 7 -4 15 -1 18 8 3 8 12 12 20 9 9 -3 14 1 14
13 0 17 1 16 16 -2 8 -10 12 -13 8 -5 -5 10 -3 13 9 8 18 -7 42 17 32 32 -4 7
1 8 11 4 11 -4 15 -3 11 4 -5 7 2 10 16 9 20 -3 23 1 19 27 -4 26 -2 29 14 24
19 -7 19 -7 0 8 -10 8 -23 12 -29 8 -6 -4 -7 -1 -3 6 5 7 14 10 22 7 7 -3 16
0 20 6 4 7 3 8 -4 4 -7 -4 -12 -3 -12 3 0 5 -8 11 -17 13 -15 3 -14 5 5 10 14
4 20 2 15 -4 -3 -7 -1 -8 6 -4 9 6 8 14 -3 31 -15 22 -14 25 2 34 9 6 11 11 5
11 -7 0 -13 5 -13 11 0 5 5 7 11 3 8 -4 8 0 0 15 -10 18 -9 21 6 22 15 0 15 2
3 7 -17 8 -22 52 -5 46 6 -3 12 2 12 11 0 9 -6 14 -14 11 -7 -3 -13 -1 -13 4
0 6 6 10 14 10 8 0 17 4 21 9 3 6 -4 8 -15 6 -18 -4 -19 -2 -4 20 10 15 12 25
5 30 -15 9 -14 28 2 19 6 -4 4 1 -5 12 -17 19 -17 21 0 38 9 11 11 16 5 12 -7
-4 -13 -4 -14 1 -4 44 -4 63 2 63 9 0 -1 41 -15 59 -8 11 -8 13 0 8 7 -4 14 2
17 13 3 11 1 23 -4 26 -6 4 -6 11 1 19 9 10 7 16 -9 24 -13 8 -18 17 -14 28 5
12 3 14 -7 8 -8 -5 -11 -4 -6 3 4 6 14 8 23 5 11 -4 14 -2 11 8 -3 8 -11 13
-19 12 -8 -2 -20 7 -28 20 -11 17 -11 19 0 10 7 -7 20 -13 29 -12 13 0 13 1 0
6 -8 3 -24 13 -34 22 -11 9 -16 10 -12 4 4 -7 2 -13 -3 -13 -6 0 -11 5 -11 10
0 6 -5 10 -11 10 -5 0 -7 -6 -3 -12 4 -7 -2 -4 -14 6 -26 23 -29 34 -4 15 14
-11 15 -11 5 1 -16 18 -62 20 -56 3z m-517 -619 c0 -8 -5 -12 -10 -9 -6 4 -8
11 -5 16 9 14 15 11 15 -7z m-619 -167 c-10 -9 -11 -8 -5 6 3 10 9 15 12 12 3
-3 0 -11 -7 -18z m-664 -72 c0 -8 -4 -15 -9 -15 -10 0 -11 14 -1 23 9 10 10 9
10 -8z m1883 9 c0 -8 -19 -13 -24 -6 -3 5 1 9 9 9 8 0 15 -2 15 -3z m-955
-183 c3 -5 0 -13 -6 -17 -7 -4 -9 -3 -5 4 3 5 0 13 -6 15 -9 4 -10 6 -1 6 6 1
14 -3 18 -8z m-1105 -211 c0 -5 -5 -10 -11 -10 -5 0 -7 5 -4 10 3 6 8 10 11
10 2 0 4 -4 4 -10z m-9 -117 c13 -16 12 -17 -3 -4 -17 13 -22 21 -14 21 2 0
10 -8 17 -17z m14 -83 c3 -6 -1 -7 -9 -4 -18 7 -21 14 -7 14 6 0 13 -4 16 -10z
m1610 -220 c3 -6 -1 -7 -9 -4 -18 7 -21 14 -7 14 6 0 13 -4 16 -10z m-1415
-86 c0 -8 -19 -13 -24 -6 -3 5 1 9 9 9 8 0 15 -2 15 -3z m1447 -19 c0 -8 -4
-12 -9 -9 -5 3 -6 10 -3 15 9 13 12 11 12 -6z m-1292 -75 c3 -5 1 -10 -4 -10
-6 0 -11 5 -11 10 0 6 2 10 4 10 3 0 8 -4 11 -10z m969 -409 c3 -5 -7 -16 -22
-25 l-27 -17 22 19 c12 11 19 22 16 26 -4 3 -4 6 0 6 3 0 8 -4 11 -9z m-604
-91 c0 -5 -5 -10 -11 -10 -5 0 -7 5 -4 10 3 6 8 10 11 10 2 0 4 -4 4 -10z"/>
<path d="M1270 2980 c0 -5 5 -10 11 -10 5 0 7 5 4 10 -3 6 -8 10 -11 10 -2 0
-4 -4 -4 -10z"/>
<path d="M2067 2949 c7 -7 15 -10 18 -7 3 3 -2 9 -12 12 -14 6 -15 5 -6 -5z"/>
<path d="M1310 2946 c0 -2 7 -9 15 -16 13 -11 14 -10 9 4 -5 14 -24 23 -24 12z"/>
<path d="M3096 2888 c3 -5 10 -6 15 -3 13 9 11 12 -6 12 -8 0 -12 -4 -9 -9z"/>
<path d="M1666 2812 c-3 -5 1 -9 9 -9 8 0 15 4 15 9 0 4 -4 8 -9 8 -6 0 -12
-4 -15 -8z"/>
<path d="M4693 2775 c0 -8 4 -12 9 -9 5 3 6 10 3 15 -9 13 -12 11 -12 -6z"/>
<path d="M4640 2690 c-9 -6 -10 -10 -3 -10 6 0 15 5 18 10 8 12 4 12 -15 0z"/>
<path d="M710 2660 c0 -5 7 -7 15 -4 8 4 15 8 15 10 0 2 -7 4 -15 4 -8 0 -15
-4 -15 -10z"/>
<path d="M565 2540 c-3 -6 1 -7 9 -4 18 7 21 14 7 14 -6 0 -13 -4 -16 -10z"/>
<path d="M847 2487 c4 -7 -1 -8 -12 -3 -15 5 -16 4 -5 -9 11 -13 11 -16 -1
-13 -8 2 -13 -3 -11 -11 2 -11 0 -12 -11 -3 -11 10 -17 9 -28 -5 -13 -17 -13
-17 5 -3 18 14 18 14 6 -7 -8 -12 -18 -19 -22 -17 -4 3 -8 0 -8 -7 0 -7 -8 -9
-21 -6 -12 3 -18 3 -15 0 3 -3 -1 -15 -9 -25 -7 -11 -12 -25 -11 -32 2 -6 1
-8 -1 -3 -3 4 -9 7 -14 7 -6 0 -7 -4 -4 -10 3 -5 -1 -10 -9 -10 -8 0 -18 -5
-22 -12 -5 -8 -2 -9 11 -4 15 5 16 4 5 -9 -7 -8 -15 -13 -19 -11 -3 2 -15 -6
-26 -17 -11 -11 -15 -17 -10 -14 6 3 11 -4 12 -16 0 -12 -1 -16 -4 -9 -3 6
-12 12 -21 12 -12 0 -13 -3 -5 -8 8 -5 9 -13 3 -22 -9 -13 -10 -13 -10 0 0 13
-1 13 -10 0 -13 -20 -12 -33 2 -24 7 5 8 3 4 -5 -5 -7 -14 -10 -22 -7 -8 3
-14 1 -14 -3 0 -5 6 -12 13 -14 9 -4 9 -6 -1 -6 -8 -1 -10 -6 -6 -13 6 -10 5
-10 -7 -1 -13 10 -16 10 -16 -2 0 -8 4 -15 9 -15 5 0 6 -5 3 -10 -5 -8 -12 -7
-22 2 -14 11 -15 10 -9 -10 6 -17 3 -22 -11 -23 -10 0 -13 -3 -5 -6 9 -3 7
-12 -8 -33 -11 -15 -20 -32 -20 -37 0 -4 5 -1 10 7 6 9 10 10 10 3 0 -6 -5
-15 -10 -18 -6 -4 -7 -12 -3 -18 4 -7 -2 -5 -12 3 -17 14 -18 14 -6 -9 7 -13
11 -34 8 -47 -2 -14 0 -27 6 -31 6 -4 7 -1 2 8 -7 12 -5 12 6 1 12 -11 12 -14
-1 -22 -9 -6 -10 -10 -3 -10 7 0 17 -10 24 -21 6 -12 7 -19 2 -16 -5 3 -9 -3
-9 -13 0 -15 3 -16 13 -8 11 9 12 6 4 -15 -9 -22 -8 -25 9 -22 13 3 17 -1 13
-11 -3 -8 -12 -13 -20 -10 -8 3 -11 1 -8 -5 4 -5 16 -7 27 -3 16 5 18 3 12 -7
-11 -18 -13 -49 -2 -43 4 3 8 -2 8 -10 0 -9 5 -16 10 -16 6 0 10 -7 10 -16 0
-9 5 -12 13 -8 8 5 8 2 -2 -9 -11 -13 -11 -17 -1 -17 8 0 11 -3 7 -6 -10 -10
17 -32 33 -26 9 3 6 -2 -5 -11 -13 -11 -15 -16 -6 -17 8 0 11 -6 7 -16 -3 -8
-2 -12 4 -9 6 3 10 -1 10 -9 0 -9 -5 -16 -12 -16 -6 0 -8 -3 -5 -6 4 -4 13 -1
22 6 13 11 15 8 16 -21 1 -19 1 -37 0 -41 0 -4 9 -5 21 -3 11 3 18 2 14 -2 -3
-3 -1 -12 5 -19 8 -9 4 -15 -13 -24 -21 -10 -21 -10 -6 3 10 8 15 17 11 20 -3
4 -13 -3 -21 -14 -11 -16 -12 -23 -3 -28 6 -4 9 -15 5 -25 -5 -14 -9 -14 -22
-4 -13 11 -13 9 1 -13 17 -25 14 -39 -7 -39 -6 0 -4 5 4 10 9 6 10 10 3 10
-21 0 -24 -18 -6 -36 17 -17 17 -17 1 -11 -10 3 -20 2 -23 -3 -4 -6 -1 -10 6
-10 9 0 9 -3 0 -14 -8 -10 -9 -16 -1 -21 5 -3 10 -11 10 -16 0 -6 -7 -3 -16 5
-8 9 -18 16 -22 16 -3 0 -1 -5 6 -12 9 -9 7 -14 -6 -25 -16 -12 -16 -13 2 -6
15 5 17 3 10 -8 -5 -8 -9 -17 -9 -21 0 -3 -4 -10 -9 -15 -5 -5 -6 -3 -2 5 4 6
3 12 -3 12 -13 0 -7 -68 7 -82 6 -6 8 -18 5 -27 -4 -11 -1 -10 11 4 13 17 15
17 10 2 -7 -21 14 -50 31 -43 9 3 11 -2 7 -16 -4 -17 -2 -20 11 -15 10 4 14 2
11 -6 -2 -7 6 -17 18 -22 16 -7 23 -18 23 -38 -1 -26 0 -27 12 -11 12 16 13
16 14 -7 1 -13 1 -28 0 -32 -1 -5 3 -6 8 -2 6 3 8 12 4 20 -3 8 -1 15 5 15 6
0 9 -11 8 -24 -2 -18 1 -23 12 -18 11 4 14 1 9 -11 -3 -9 -1 -19 5 -23 7 -4 8
-3 4 4 -4 7 -2 12 3 12 6 0 11 -5 11 -11 0 -5 6 -7 13 -3 9 6 9 4 -1 -8 -10
-13 -10 -17 3 -22 9 -3 14 -10 11 -15 -3 -5 3 -7 14 -4 12 3 20 0 20 -6 0 -7
5 -9 13 -5 9 6 9 4 -1 -8 -10 -13 -9 -15 5 -14 10 0 20 -3 22 -9 2 -5 12 -16
23 -23 10 -7 16 -17 13 -22 -3 -4 6 -7 20 -5 20 2 23 0 14 -11 -9 -11 -8 -14
0 -14 7 0 9 -5 5 -12 -5 -8 0 -7 11 2 11 9 16 10 11 2 -4 -7 -1 -15 8 -18 9
-3 13 -11 9 -17 -3 -6 -1 -7 5 -3 7 4 12 2 12 -3 0 -6 12 -11 26 -11 14 0 23
-4 19 -10 -3 -5 -1 -10 4 -10 6 0 10 -5 9 -11 -2 -6 7 -12 19 -14 14 -1 19 3
16 12 -3 7 0 13 6 13 6 0 11 -4 11 -10 0 -5 7 -7 15 -4 8 4 12 11 9 16 -5 7 5
9 25 6 30 -4 30 -4 13 15 -17 19 -16 19 6 6 19 -12 24 -12 32 1 8 12 10 12 15
-3 6 -14 9 -14 21 -2 20 20 17 30 -3 14 -16 -13 -17 -12 -5 3 15 19 39 18 53
-3 8 -11 9 -9 5 6 -5 18 -1 20 29 19 29 -2 34 1 25 11 -9 11 -7 12 9 8 12 -3
18 -10 14 -16 -4 -6 9 0 27 13 25 18 32 20 27 8 -8 -22 35 -52 52 -35 8 8 11
6 11 -7 0 -15 3 -16 14 -7 12 10 13 8 9 -11 -5 -23 -5 -23 10 -3 l16 20 7 -20
c4 -11 15 -27 23 -35 13 -13 14 -13 8 2 -3 10 -1 20 5 24 7 4 8 3 4 -4 -4 -7
-2 -12 4 -12 6 0 9 -4 6 -9 -7 -11 18 -23 59 -28 17 -3 32 -9 33 -14 2 -5 8
-7 13 -3 5 3 9 0 9 -5 0 -6 5 -11 11 -11 5 0 7 5 4 10 -10 16 0 12 25 -10 18
-16 26 -17 44 -8 19 10 20 10 7 -6 -12 -15 -12 -17 0 -14 8 2 13 -2 12 -8 -1
-5 9 -10 22 -10 13 0 22 3 19 7 -2 4 3 6 13 5 9 -2 20 -11 24 -22 4 -10 8 -16
8 -11 1 4 12 0 26 -9 14 -9 25 -12 25 -8 0 5 7 0 15 -10 8 -11 15 -15 15 -10
0 6 -5 15 -12 22 -9 9 -9 12 0 12 7 0 15 -13 19 -30 3 -16 10 -30 15 -30 6 0
6 -6 -1 -14 -10 -12 -7 -17 16 -28 23 -11 28 -20 27 -46 -1 -28 1 -31 15 -20
9 7 13 8 8 3 -4 -4 1 -18 10 -29 15 -17 15 -19 1 -8 -13 11 -18 11 -24 0 -4
-7 -4 -10 0 -6 14 12 35 -15 23 -30 -8 -10 -5 -14 12 -19 15 -4 21 -11 18 -23
-4 -14 1 -17 18 -15 16 1 22 -2 18 -11 -6 -17 19 -18 36 -1 10 10 12 9 9 -2
-2 -7 3 -16 11 -19 9 -3 11 0 6 8 -5 9 -4 11 4 6 6 -4 9 -11 6 -16 -2 -4 7
-10 22 -13 25 -5 26 -4 10 8 -17 12 -16 13 7 11 13 0 22 -4 20 -7 -2 -4 3 -10
12 -13 8 -3 12 -2 9 4 -3 6 -1 10 4 10 6 0 11 -3 11 -8 0 -7 28 -7 90 -2 41 4
52 1 44 -12 -4 -6 3 -5 15 4 20 14 76 14 67 -1 -3 -4 4 -7 14 -7 12 0 16 4 10
11 -6 7 0 10 16 10 14 -1 30 -8 35 -16 7 -11 9 -10 9 5 0 16 3 17 12 8 13 -13
32 -17 25 -4 -3 4 8 7 24 8 15 1 26 -3 23 -7 -5 -9 19 -5 50 7 15 6 17 4 11
-7 -5 -8 2 -5 15 6 22 19 23 19 16 1 -5 -16 -4 -17 9 -6 8 7 12 17 9 22 -4 6
3 5 15 -1 20 -11 25 -8 22 12 -1 5 3 6 8 2 6 -3 7 -13 4 -22 -6 -15 -5 -16 9
-3 9 8 13 20 10 25 -3 6 1 4 10 -3 13 -10 17 -10 22 3 4 11 2 14 -6 9 -7 -5
-8 -3 -4 5 5 7 14 10 22 7 12 -5 12 -2 3 15 -8 15 -8 19 0 15 6 -4 11 0 11 9
0 9 5 13 10 10 6 -3 10 1 10 10 0 10 -5 14 -12 9 -10 -6 -10 -4 0 7 16 18 15
29 -4 29 -8 0 -12 5 -9 10 4 6 11 7 17 4 6 -4 8 -3 5 3 -4 6 -22 9 -42 6 -34
-3 -42 5 -36 40 1 5 -3 6 -9 2 -6 -3 -8 -10 -5 -15 3 -5 0 -12 -7 -16 -7 -4
-9 -3 -5 1 4 5 -7 17 -25 27 -18 9 -27 17 -20 18 6 0 12 5 12 10 0 7 -6 7 -19
1 -13 -8 -23 -6 -37 5 -18 14 -17 14 6 4 24 -11 24 -10 5 5 -11 8 -25 13 -32
11 -8 -3 -10 1 -6 12 6 15 5 16 -12 2 -10 -8 -16 -10 -12 -4 4 7 -5 17 -23 24
-26 11 -35 25 -32 51 1 3 -5 6 -13 6 -8 0 -12 -4 -9 -8 2 -4 -1 -11 -7 -15 -8
-4 -9 -3 -5 4 4 8 0 12 -10 12 -16 0 -16 1 2 15 18 13 18 14 -4 8 -17 -4 -24
-1 -28 14 -3 10 -19 25 -35 32 -17 7 -28 16 -25 19 3 2 12 -1 21 -8 13 -11 14
-10 9 4 -3 9 -13 16 -21 16 -9 0 -11 5 -7 13 5 7 0 6 -11 -3 -17 -13 -18 -13
-13 1 4 10 -8 32 -34 60 l-40 44 37 -47 c20 -27 33 -48 28 -48 -4 0 -21 18
-37 40 -16 21 -32 37 -36 35 -3 -2 -5 9 -4 26 1 16 -2 26 -7 23 -5 -3 -9 0 -9
7 0 8 -5 7 -17 -2 -15 -13 -15 -12 -4 10 8 15 9 21 2 17 -6 -4 -11 0 -11 8 0
9 -5 16 -11 16 -5 0 -7 -5 -4 -10 3 -6 1 -10 -4 -10 -14 0 -14 6 -1 30 8 16 7
18 -4 14 -11 -4 -13 0 -9 15 4 17 1 21 -18 21 -19 0 -21 2 -9 10 12 8 12 10
-5 10 -17 0 -17 2 -5 10 13 8 12 10 -2 10 -16 0 -23 11 -19 32 0 5 -3 8 -9 8
-5 0 -10 -6 -10 -12 0 -9 -3 -10 -8 -2 -4 6 -21 16 -39 22 -26 8 -34 8 -44 -4
-11 -13 -16 -11 -37 13 -14 16 -22 20 -19 11 3 -10 2 -20 -3 -23 -6 -4 -10 4
-11 17 0 21 -1 21 -8 4 -7 -19 -8 -19 -13 2 -6 21 -17 23 -63 7 -16 -6 -17 -5
-5 4 8 6 13 11 10 12 -3 0 -16 2 -28 3 -13 2 -27 9 -32 16 -6 10 -9 9 -13 -1
-4 -10 -6 -10 -6 2 -1 11 -9 15 -27 13 -18 -2 -24 1 -20 11 6 17 -10 30 -19
15 -11 -17 -28 -11 -21 8 6 15 5 15 -8 -1 -9 -12 -16 -14 -21 -7 -3 5 -11 7
-17 4 -7 -4 -8 -2 -4 5 4 6 11 9 16 6 5 -3 11 -1 15 4 3 6 -3 8 -15 6 -11 -2
-24 3 -30 13 -8 15 -9 15 -10 -3 l-1 -20 -9 20 c-6 13 -9 15 -9 5 -1 -13 -2
-13 -11 0 -12 19 -13 33 -1 26 5 -3 12 1 15 10 6 15 8 15 31 0 23 -15 24 -15
18 1 -4 10 -2 14 5 9 6 -3 13 -2 16 3 4 5 -5 8 -19 7 -13 -2 -22 1 -19 5 6 10
33 7 53 -5 11 -7 13 -5 8 6 -6 17 8 19 31 5 7 -5 12 -3 12 7 0 8 5 18 12 22 6
4 8 3 4 -4 -3 -6 -1 -14 5 -18 7 -4 9 -3 5 4 -3 6 -2 13 4 17 6 4 8 10 6 14
-3 4 1 8 9 8 8 0 12 -4 9 -9 -3 -4 2 -8 10 -8 23 0 28 18 9 29 -14 8 -10 10
18 7 29 -2 36 1 31 13 -4 10 -1 12 9 6 12 -7 12 -6 1 7 -11 13 -10 16 5 14 10
0 17 5 15 12 -1 8 2 11 8 7 5 -3 18 -1 27 5 16 10 16 11 1 6 -12 -3 -15 -1
-11 10 3 8 12 13 20 9 11 -4 13 -1 9 10 -4 11 0 15 12 13 13 -2 17 4 16 25 0
27 1 28 14 10 13 -17 14 -16 9 10 -3 18 0 30 8 34 17 6 39 59 32 77 -4 10 -1
13 8 9 8 -3 12 -10 8 -16 -3 -5 -1 -7 5 -4 5 4 8 16 5 26 -3 10 0 22 6 25 5 4
8 13 5 20 -3 8 2 28 10 45 19 35 20 41 5 41 -5 0 -7 -4 -4 -10 3 -6 -1 -7 -10
-3 -12 4 -13 8 -4 13 7 5 9 16 5 26 -6 18 -5 18 8 1 12 -16 13 -16 14 8 0 13
-4 23 -8 20 -4 -2 -6 8 -6 23 1 15 -3 33 -8 41 -7 9 -6 17 6 25 12 9 13 14 3
23 -7 7 -16 9 -21 5 -4 -4 -4 -2 0 5 4 7 13 10 21 6 8 -3 15 0 15 7 0 6 -4 9
-8 6 -4 -2 -14 -1 -22 5 -12 7 -12 9 -1 9 11 0 11 3 0 17 -11 13 -11 15 -1 9
11 -7 11 -4 0 13 -11 18 -11 23 2 31 8 5 10 10 5 10 -6 0 -16 -5 -23 -10 -6
-6 -10 -7 -7 -4 2 4 -1 16 -7 28 -9 17 -8 19 3 9 7 -7 17 -13 22 -13 6 0 -7
13 -27 29 -23 19 -32 31 -24 34 10 4 10 8 -2 16 -8 5 -17 8 -20 6 -3 -2 -7 5
-7 16 -2 17 0 18 13 4 23 -22 30 -18 9 5 -10 11 -20 18 -23 15 -3 -3 -11 0
-19 6 -10 9 -11 15 -2 26 10 11 8 12 -6 7 -13 -5 -16 -4 -11 4 4 7 3 12 -3 12
-5 0 -11 -3 -14 -7 -2 -5 -2 -3 -1 4 2 7 -8 21 -21 31 -13 11 -23 21 -21 23 2
2 -3 11 -12 19 -14 13 -15 12 -9 -3 6 -15 4 -16 -14 -7 -11 6 -17 15 -15 19 3
5 -3 16 -14 26 -12 10 -20 13 -20 7 0 -7 5 -12 12 -12 6 0 9 -2 6 -5 -10 -10
-39 8 -34 21 3 7 -1 17 -8 23 -9 8 -13 7 -13 -4 0 -8 5 -11 10 -8 6 4 7 1 2
-7 -6 -10 -12 -8 -24 7 -17 22 -57 41 -45 22 4 -8 0 -7 -15 0 -11 7 -21 15
-21 19 0 4 -9 8 -19 8 -11 0 -17 -5 -14 -11 4 -5 -6 1 -22 15 -16 14 -25 19
-21 13 5 -9 0 -13 -13 -13 -12 0 -21 5 -21 11 0 5 -5 7 -10 4 -6 -3 -13 1 -17
11 -5 14 -8 13 -19 -7 -7 -13 -13 -19 -14 -13 0 7 -7 15 -16 18 -15 6 -15 4
-3 -10 13 -16 12 -16 -9 -5 -13 7 -26 10 -29 7 -4 -3 -13 0 -21 7 -13 10 -14
9 -3 -12 8 -15 9 -21 2 -17 -6 4 -16 4 -23 0 -17 -11 -67 -11 -61 0 3 5 0 7
-6 5 -7 -3 -12 -8 -11 -13 3 -16 -24 -25 -39 -13 -12 10 -13 9 -6 -2 6 -10 4
-13 -7 -9 -8 4 -20 -2 -26 -13 -11 -17 -16 -18 -35 -8 -20 11 -21 11 -8 -5 8
-9 10 -16 5 -15 -5 1 -20 1 -33 0 -24 -1 -24 -2 -6 -15 18 -13 18 -14 -8 -9
-32 6 -57 -11 -57 -39 0 -14 -5 -18 -16 -14 -13 5 -15 2 -11 -13 3 -14 1 -18
-9 -14 -8 3 -11 10 -7 17 3 6 2 7 -3 3 -9 -9 -10 -13 -13 -42 0 -8 -6 -15 -12
-15 -5 0 -7 5 -3 12 4 7 3 8 -5 4 -9 -6 -9 -11 0 -22 10 -12 9 -13 -5 -8 -9 4
-16 3 -15 -2 5 -28 -2 -43 -17 -37 -14 5 -15 3 -4 -18 12 -21 11 -22 -2 -12
-12 10 -15 10 -16 -2 -1 -8 -3 -22 -4 -30 -1 -10 -8 -13 -22 -10 -19 5 -19 5
-3 -5 21 -13 23 -34 3 -27 -11 4 -13 1 -9 -10 5 -12 2 -14 -8 -9 -8 4 -6 1 4
-7 17 -14 17 -15 -2 -20 -14 -3 -18 -12 -16 -36 1 -17 -1 -34 -6 -37 -5 -3 -6
-10 -3 -16 4 -7 2 -8 -5 -4 -6 4 -18 21 -27 38 -9 16 -11 27 -6 24 6 -4 14 -1
18 5 4 8 3 9 -5 5 -6 -4 -14 0 -17 8 -3 9 -10 14 -14 11 -5 -3 -12 0 -16 6 -4
7 -3 9 3 6 6 -4 13 1 15 11 3 11 0 19 -8 19 -7 0 -10 -5 -7 -10 4 -6 1 -7 -6
-3 -9 6 -8 13 6 29 10 11 14 18 8 15 -5 -3 -20 8 -33 23 -23 29 -18 40 7 17
11 -10 10 -8 0 10 -8 12 -18 22 -23 22 -4 0 -6 9 -3 20 3 11 1 18 -3 15 -16
-10 -30 30 -17 45 10 10 9 11 -2 5 -11 -6 -13 -4 -7 10 4 10 2 21 -4 25 -12 7
-14 29 -7 72 2 15 1 25 -4 22 -4 -2 -13 5 -19 17 -7 12 -8 19 -3 16 5 -3 9 7
8 22 0 21 -4 27 -15 24 -10 -3 -8 1 4 11 11 9 14 16 7 16 -7 0 -9 5 -5 13 6
10 4 10 -7 0 -7 -7 -18 -13 -24 -13 -6 0 -7 3 0 8 6 4 17 16 25 26 14 18 13
18 -10 13 -14 -4 -19 -4 -13 -1 9 4 10 11 2 25 -7 15 -6 21 5 25 20 8 8 34
-12 27 -14 -4 -14 -3 -3 5 21 15 24 45 4 38 -10 -4 -13 -2 -10 7 3 8 -1 14 -9
14 -7 0 -10 -5 -7 -10z m889 -218 c19 -22 19 -22 -3 -8 -13 8 -23 17 -23 21 0
12 6 9 26 -13z m-81 1 c3 -6 -1 -7 -9 -4 -18 7 -21 14 -7 14 6 0 13 -4 16 -10z
m-732 -83 c3 -8 -1 -14 -8 -14 -7 0 -11 6 -8 14 3 7 6 13 8 13 2 0 5 -6 8 -13z
m401 -42 c-4 -8 -10 -12 -15 -9 -11 6 -2 24 11 24 5 0 7 -7 4 -15z m-194 -320
c0 -2 -6 -5 -13 -8 -8 -3 -14 1 -14 8 0 7 6 11 14 8 7 -3 13 -6 13 -8z m1135
-244 c3 -5 2 -12 -3 -15 -5 -3 -9 1 -9 9 0 17 3 19 12 6z m-1580 -101 c-3 -5
-12 -10 -18 -10 -7 0 -6 4 3 10 19 12 23 12 15 0z m-84 -377 c13 -16 12 -17
-3 -4 -10 7 -18 15 -18 17 0 8 8 3 21 -13z m35 -53 c0 -12 -4 -16 -9 -11 -5 5
-6 14 -3 20 10 15 12 14 12 -9z m1464 -106 c0 -8 -19 -13 -24 -6 -3 5 1 9 9 9
8 0 15 -2 15 -3z m255 -134 c-3 -5 -12 -10 -18 -10 -7 0 -6 4 3 10 19 12 23
12 15 0z m-915 -126 c0 -8 -19 -13 -24 -6 -3 5 1 9 9 9 8 0 15 -2 15 -3z m70
-36 c0 -6 -6 -5 -15 2 -8 7 -15 14 -15 16 0 2 7 1 15 -2 8 -4 15 -11 15 -16z
m160 -79 c0 -6 -4 -7 -10 -4 -5 3 -10 11 -10 16 0 6 5 7 10 4 6 -3 10 -11 10
-16z m204 -75 c3 -8 2 -12 -4 -9 -6 3 -10 10 -10 16 0 14 7 11 14 -7z m108
-32 c21 -21 2 -23 -23 -3 -19 16 -20 19 -6 17 9 -1 22 -7 29 -14z m85 -98 c-3
-3 -12 -4 -19 -1 -8 3 -5 6 6 6 11 1 17 -2 13 -5z m80 -160 c-3 -3 -12 -4 -19
-1 -8 3 -5 6 6 6 11 1 17 -2 13 -5z"/>
<path d="M880 2395 c0 -2 6 -8 13 -14 10 -8 14 -7 14 2 0 8 -6 14 -14 14 -7 0
-13 -1 -13 -2z"/>
<path d="M1576 2286 c6 -15 4 -17 -6 -11 -9 6 -11 4 -5 -4 5 -9 10 -10 18 -2
8 8 7 14 -2 24 -10 10 -11 8 -5 -7z"/>
<path d="M3380 2290 c-8 -5 -12 -12 -9 -15 4 -3 12 1 19 10 14 17 11 19 -10 5z"/>
<path d="M1406 2218 c3 -5 10 -6 15 -3 13 9 11 12 -6 12 -8 0 -12 -4 -9 -9z"/>
<path d="M957 2049 c7 -7 15 -10 18 -7 3 3 -2 9 -12 12 -14 6 -15 5 -6 -5z"/>
<path d="M3880 2046 c0 -2 7 -6 15 -10 8 -3 15 -1 15 4 0 6 -7 10 -15 10 -8 0
-15 -2 -15 -4z"/>
<path d="M2215 1960 c3 -5 8 -10 11 -10 2 0 4 5 4 10 0 6 -5 10 -11 10 -5 0
-7 -4 -4 -10z"/>
<path d="M4065 1901 c-3 -5 -2 -12 3 -15 5 -3 9 1 9 9 0 17 -3 19 -12 6z"/>
<path d="M3975 1880 c3 -5 8 -10 11 -10 2 0 4 5 4 10 0 6 -5 10 -11 10 -5 0
-7 -4 -4 -10z"/>
<path d="M3986 1852 c-3 -5 1 -15 8 -21 11 -10 14 -9 12 3 -3 21 -13 29 -20
18z"/>
<path d="M1067 1785 c3 -8 9 -12 14 -9 12 7 11 11 -5 17 -10 4 -13 1 -9 -8z"/>
<path d="M2270 1740 c0 -5 4 -10 9 -10 6 0 13 5 16 10 3 6 -1 10 -9 10 -9 0
-16 -4 -16 -10z"/>
<path d="M2283 1705 c-3 -9 -3 -18 -1 -21 3 -3 8 4 11 16 6 23 -1 27 -10 5z"/>
<path d="M2807 1702 c8 -5 9 -13 3 -22 -16 -25 -11 -36 6 -12 16 23 12 42 -9
42 -9 0 -9 -2 0 -8z"/>
<path d="M4465 1521 c-3 -5 -2 -12 3 -15 5 -3 9 1 9 9 0 17 -3 19 -12 6z"/>
<path d="M2950 1300 c0 -5 5 -10 11 -10 5 0 7 5 4 10 -3 6 -8 10 -11 10 -2 0
-4 -4 -4 -10z"/>
<path d="M2977 1259 c7 -7 15 -10 18 -7 3 3 -2 9 -12 12 -14 6 -15 5 -6 -5z"/>
<path d="M3141 994 c0 -11 3 -14 6 -6 3 7 2 16 -1 19 -3 4 -6 -2 -5 -13z"/>
<path d="M2006 978 c3 -5 10 -6 15 -3 13 9 11 12 -6 12 -8 0 -12 -4 -9 -9z"/>
<path d="M3061 973 c-18 -19 -10 -25 12 -8 10 7 15 15 10 18 -4 3 -14 -2 -22
-10z"/>
<path d="M696 947 c3 -10 9 -15 12 -12 3 3 0 11 -7 18 -10 9 -11 8 -5 -6z"/>
<path d="M3850 616 c0 -2 8 -10 18 -17 15 -13 16 -12 3 4 -13 16 -21 21 -21
13z"/>
<path d="M2630 510 c-9 -6 -10 -10 -3 -10 6 0 15 5 18 10 8 12 4 12 -15 0z"/>
<path d="M2707 439 c7 -7 15 -10 18 -7 3 3 -2 9 -12 12 -14 6 -15 5 -6 -5z"/>
<path d="M2066 327 c3 -10 9 -15 12 -12 3 3 0 11 -7 18 -10 9 -11 8 -5 -6z"/>
<path d="M2615 101 c-3 -5 -2 -12 3 -15 5 -3 9 1 9 9 0 17 -3 19 -12 6z"/>
</g>
</svg>
